<svg width="33" height="33" viewBox="0 0 33 33" fill="white" xmlns="http://www.w3.org/2000/svg">
<path d="M13.8225 23.9791L25.1025 12.6991L22.8625 10.4591L13.8225 19.4991L9.2625 14.9391L7.0225 17.1791L13.8225 23.9791ZM16.0625 32.6191C13.8492 32.6191 11.7692 32.1989 9.8225 31.3583C7.87583 30.5189 6.1825 29.3791 4.7425 27.9391C3.3025 26.4991 2.16277 24.8058 1.3233 22.8591C0.482767 20.9125 0.0625 18.8325 0.0625 16.6191C0.0625 14.4058 0.482767 12.3258 1.3233 10.3791C2.16277 8.43248 3.3025 6.73914 4.7425 5.29914C6.1825 3.85914 7.87583 2.71887 9.8225 1.87834C11.7692 1.03887 13.8492 0.619141 16.0625 0.619141C18.2758 0.619141 20.3558 1.03887 22.3025 1.87834C24.2492 2.71887 25.9425 3.85914 27.3825 5.29914C28.8225 6.73914 29.9622 8.43248 30.8017 10.3791C31.6422 12.3258 32.0625 14.4058 32.0625 16.6191C32.0625 18.8325 31.6422 20.9125 30.8017 22.8591C29.9622 24.8058 28.8225 26.4991 27.3825 27.9391C25.9425 29.3791 24.2492 30.5189 22.3025 31.3583C20.3558 32.1989 18.2758 32.6191 16.0625 32.6191ZM16.0625 29.4191C19.6358 29.4191 22.6625 28.1791 25.1425 25.6991C27.6225 23.2191 28.8625 20.1925 28.8625 16.6191C28.8625 13.0458 27.6225 10.0191 25.1425 7.53914C22.6625 5.05914 19.6358 3.81914 16.0625 3.81914C12.4892 3.81914 9.4625 5.05914 6.9825 7.53914C4.5025 10.0191 3.2625 13.0458 3.2625 16.6191C3.2625 20.1925 4.5025 23.2191 6.9825 25.6991C9.4625 28.1791 12.4892 29.4191 16.0625 29.4191Z" fill="white"/>
</svg>
