<svg width="30" height="29" viewBox="0 0 30 29" fill="none" xmlns="http://www.w3.org/2000/svg">
<g filter="url(#filter0_d_2_3937)">
<circle cx="15" cy="14" r="13" fill="white"/>
</g>
<g clip-path="url(#clip0_2_3937)">
<path d="M12.8699 16.9026L13.532 17.0051C13.548 16.9156 13.5428 16.8239 13.5169 16.7364C13.491 16.6489 13.4449 16.5677 13.3819 16.4985C13.3189 16.4293 13.2405 16.3737 13.1521 16.3355C13.0636 16.2974 12.9673 16.2776 12.8699 16.2776V16.9026ZM22.712 16.9026V17.5276C22.89 17.5276 23.0607 17.4618 23.1865 17.3446C23.3124 17.2274 23.3831 17.0684 23.3831 16.9026H22.712ZM20.9225 7.94431H10.7583V9.19431H20.9225V7.94431ZM9.68464 17.5276H12.8699V16.2776H9.68464V17.5276ZM12.2078 16.8001L11.4866 20.8293L12.8108 21.0351L13.532 17.0051L12.2078 16.8001ZM13.031 22.5276H13.2224V21.2776H13.0318L13.031 22.5276ZM16.0149 21.136L18.2652 17.9918L17.1485 17.2985L14.8983 20.4426L16.0149 21.136ZM19.1957 17.5276H22.712V16.2776H19.1957V17.5276ZM23.3831 16.9026V10.236H22.041V16.9026H23.3831ZM8.34522 9.78597L7.27153 14.786L8.58679 15.0318L9.66048 10.0318L8.34522 9.78681V9.78597ZM18.2652 17.9918C18.3673 17.8491 18.5056 17.7329 18.6679 17.6519C18.8303 17.5709 19.0115 17.5285 19.1957 17.5285V16.2785C18.3725 16.2785 17.6048 16.661 17.1485 17.2985L18.2652 17.9918ZM11.4866 20.8293C11.4494 21.0382 11.4614 21.2529 11.5218 21.457C11.5822 21.6611 11.6897 21.8505 11.8366 22.0121C11.9836 22.1736 12.1665 22.3034 12.3728 22.3924C12.579 22.4815 12.8036 22.5276 13.031 22.5276L13.0318 21.2776C12.9994 21.2776 12.9665 21.2709 12.9371 21.2582C12.9077 21.2454 12.8816 21.2269 12.8607 21.2038C12.8397 21.1807 12.8244 21.1537 12.8158 21.1246C12.8072 21.0955 12.8055 21.0649 12.8108 21.0351L11.4866 20.8293ZM9.68464 16.2785C8.9778 16.2785 8.4499 15.6768 8.58769 15.0326L7.27153 14.7868C7.20033 15.1192 7.20919 15.4631 7.29748 15.7919C7.38577 16.1207 7.55129 16.4273 7.78211 16.6893C8.01292 16.9514 8.30329 17.1626 8.63228 17.3075C8.96127 17.4525 9.32069 17.5277 9.68464 17.5276V16.2776V16.2785ZM10.7583 7.94431C10.1895 7.9442 9.63827 8.12847 9.19832 8.46424C8.75837 8.80001 8.45691 9.26737 8.34522 9.78681L9.66048 10.0326C9.7112 9.79631 9.84833 9.58367 10.0485 9.43095C10.2487 9.27824 10.4996 9.19407 10.7583 9.19431V7.94431ZM13.2224 22.5276C13.7748 22.5276 14.3186 22.4014 14.8056 22.1586C15.2925 21.9159 15.7076 21.5649 16.014 21.1368L14.8983 20.4426C14.7144 20.6996 14.4652 20.9111 14.1728 21.0568C13.8804 21.2024 13.554 21.2778 13.2224 21.2776V22.5276ZM20.9225 9.19431C21.5399 9.19431 22.041 9.66097 22.041 10.236H23.3831C23.3831 9.62819 23.1238 9.04529 22.6624 8.61552C22.2009 8.18575 21.5751 7.94431 20.9225 7.94431V9.19431Z" fill="currentColor"/>
<path d="M19.1331 16.9026V8.56932" stroke="currentColor" strokeWidth="1.5"/>
</g>
<defs>
<filter id="filter0_d_2_3937" x="0.5" y="0" width="29" height="29" filterUnits="userSpaceOnUse" color-interpolation-filters="sRGB">
<feFlood flood-opacity="0" result="BackgroundImageFix"/>
<feColorMatrix in="SourceAlpha" type="matrix" values="0 0 0 0 0 0 0 0 0 0 0 0 0 0 0 0 0 0 127 0" result="hardAlpha"/>
<feMorphology radius="0.5" operator="dilate" in="SourceAlpha" result="effect1_dropShadow_2_3937"/>
<feOffset dy="0.5"/>
<feGaussianBlur stdDeviation="0.5"/>
<feComposite in2="hardAlpha" operator="out"/>
<feColorMatrix type="matrix" values="0 0 0 0 0 0 0 0 0 0 0 0 0 0 0 0 0 0 0.1 0"/>
<feBlend mode="normal" in2="BackgroundImageFix" result="effect1_dropShadow_2_3937"/>
<feBlend mode="normal" in="SourceGraphic" in2="effect1_dropShadow_2_3937" result="shape"/>
</filter>
<clipPath id="clip0_2_3937">
<rect width="17" height="15" fill="white" transform="translate(7.00012 7.73682)"/>
</clipPath>
</defs>
</svg>
