<svg width="28" height="28" viewBox="0 0 28 28" fill="none" xmlns="http://www.w3.org/2000/svg">
<path d="M14.0844 6.63615C10.2145 6.63615 7.09124 9.75937 7.09124 13.6293C7.09124 17.4992 10.2145 20.6225 14.0844 20.6225C17.9543 20.6225 21.0775 17.4992 21.0775 13.6293C21.0775 9.75937 17.9543 6.63615 14.0844 6.63615ZM14.0844 18.1743C11.5817 18.1743 9.53935 16.132 9.53935 13.6293C9.53935 11.1266 11.5817 9.08427 14.0844 9.08427C16.5871 9.08427 18.6294 11.1266 18.6294 13.6293C18.6294 16.132 16.5871 18.1743 14.0844 18.1743ZM21.3639 4.71994C20.4604 4.71994 19.7307 5.4496 19.7307 6.35315C19.7307 7.25671 20.4604 7.98637 21.3639 7.98637C22.2675 7.98637 22.9972 7.26012 22.9972 6.35315C22.9974 6.1386 22.9554 5.9261 22.8734 5.72783C22.7914 5.52956 22.6711 5.34941 22.5194 5.1977C22.3677 5.04599 22.1875 4.92569 21.9893 4.84371C21.791 4.76173 21.5785 4.71967 21.3639 4.71994ZM27.7161 13.6293C27.7161 11.7472 27.7331 9.88212 27.6274 8.00341C27.5217 5.82125 27.0239 3.88458 25.4282 2.28888C23.8291 0.689759 21.8958 0.195363 19.7137 0.0896645C17.8316 -0.016034 15.9665 0.00101417 14.0878 0.00101417C12.2057 0.00101417 10.3406 -0.016034 8.46191 0.0896645C6.27975 0.195363 4.34308 0.693169 2.74737 2.28888C1.14826 3.88799 0.653859 5.82125 0.548161 8.00341C0.442462 9.88553 0.45951 11.7506 0.45951 13.6293C0.45951 15.508 0.442462 17.3765 0.548161 19.2552C0.653859 21.4374 1.15167 23.374 2.74737 24.9697C4.34649 26.5688 6.27975 27.0632 8.46191 27.1689C10.344 27.2746 12.2091 27.2576 14.0878 27.2576C15.9699 27.2576 17.835 27.2746 19.7137 27.1689C21.8958 27.0632 23.8325 26.5654 25.4282 24.9697C27.0273 23.3706 27.5217 21.4374 27.6274 19.2552C27.7365 17.3765 27.7161 15.5114 27.7161 13.6293ZM24.7156 21.6692C24.4667 22.2898 24.1667 22.7535 23.6859 23.2308C23.2051 23.7116 22.7448 24.0116 22.1243 24.2605C20.3308 24.9731 16.0722 24.8129 14.0844 24.8129C12.0966 24.8129 7.83454 24.9731 6.04107 24.2639C5.42052 24.015 4.95681 23.715 4.47946 23.2342C3.99871 22.7535 3.69866 22.2932 3.44976 21.6726C2.74055 19.8757 2.9008 15.6171 2.9008 13.6293C2.9008 11.6415 2.74055 7.37945 3.44976 5.58599C3.69866 4.96543 3.99871 4.50173 4.47946 4.02438C4.96022 3.54703 5.42052 3.24357 6.04107 2.99467C7.83454 2.28547 12.0966 2.44572 14.0844 2.44572C16.0722 2.44572 20.3342 2.28547 22.1277 2.99467C22.7483 3.24357 23.212 3.54362 23.6893 4.02438C24.1701 4.50513 24.4701 4.96543 24.719 5.58599C25.4282 7.37945 25.268 11.6415 25.268 13.6293C25.268 15.6171 25.4282 19.8757 24.7156 21.6692Z" fill="white"/>
</svg>
