<svg width="30" height="29" viewBox="0 0 30 29" fill="none" xmlns="http://www.w3.org/2000/svg">
<g filter="url(#filter0_d_2_3943)">
<circle cx="15" cy="14" r="13" fill="white"/>
</g>
<g clip-path="url(#clip0_2_3943)">
<path d="M17.7369 10.8333L17.0748 10.7308C17.0588 10.8204 17.064 10.9121 17.0899 10.9995C17.1158 11.087 17.1619 11.1682 17.2249 11.2375C17.2879 11.3067 17.3663 11.3623 17.4548 11.4005C17.5432 11.4386 17.6395 11.4583 17.7369 11.4583V10.8333ZM7.89481 10.8333V10.2083C7.71683 10.2083 7.54615 10.2742 7.4203 10.3914C7.29445 10.5086 7.22375 10.6676 7.22375 10.8333H7.89481ZM9.68428 19.7917H19.8485V18.5417H9.68428V19.7917ZM20.9222 10.2083H17.7369V11.4583H20.9222V10.2083ZM18.399 10.9358L19.1202 6.90666L17.796 6.70082L17.0748 10.7308L18.399 10.9358ZM17.5759 5.20832H17.3844V6.45832H17.575L17.5759 5.20832ZM14.5919 6.59999L12.3416 9.74416L13.4583 10.4375L15.7085 7.29332L14.5919 6.59999ZM11.4111 10.2083H7.89481V11.4583H11.4111V10.2083ZM7.22375 10.8333V17.5H8.56586V10.8333H7.22375ZM22.2616 17.95L23.3353 12.95L22.02 12.7042L20.9463 17.7042L22.2616 17.9492V17.95ZM12.3416 9.74416C12.2396 9.88689 12.1012 10.0031 11.9389 10.0841C11.7766 10.1651 11.5953 10.2074 11.4111 10.2075V11.4575C12.2343 11.4575 13.002 11.075 13.4583 10.4375L12.3416 9.74416ZM19.1202 6.90666C19.1575 6.6978 19.1455 6.48305 19.085 6.27894C19.0246 6.07484 18.9172 5.88543 18.7702 5.7239C18.6232 5.56236 18.4403 5.43257 18.234 5.34353C18.0278 5.2545 17.8032 5.20836 17.5759 5.20832L17.575 6.45832C17.6074 6.4584 17.6403 6.46504 17.6697 6.47779C17.6991 6.49054 17.7252 6.50909 17.7461 6.53216C17.7671 6.55523 17.7824 6.58226 17.791 6.61138C17.7996 6.64051 17.8013 6.67102 17.796 6.70082L19.1202 6.90666ZM20.9222 11.4575C21.629 11.4575 22.1569 12.0592 22.0191 12.7033L23.3353 12.9492C23.4065 12.6167 23.3976 12.2729 23.3093 11.9441C23.221 11.6152 23.0555 11.3087 22.8247 11.0466C22.5939 10.7845 22.3035 10.5734 21.9745 10.4284C21.6455 10.2835 21.2861 10.2083 20.9222 10.2083V11.4583V11.4575ZM19.8485 19.7917C20.4173 19.7918 20.9685 19.6075 21.4085 19.2717C21.8484 18.936 22.1499 18.4686 22.2616 17.9492L20.9463 17.7033C20.8956 17.9397 20.7585 18.1523 20.5583 18.305C20.3581 18.4577 20.1073 18.5419 19.8485 18.5417V19.7917ZM17.3844 5.20832C16.832 5.20836 16.2882 5.33457 15.8013 5.57734C15.3143 5.82011 14.8992 6.1711 14.5928 6.59916L15.7085 7.29332C15.8924 7.03637 16.1417 6.82487 16.434 6.6792C16.7264 6.53353 17.0528 6.45821 17.3844 6.45832V5.20832ZM9.68428 18.5417C9.06691 18.5417 8.56586 18.075 8.56586 17.5H7.22375C7.22375 18.1078 7.48299 18.6907 7.94443 19.1204C8.40586 19.5502 9.03171 19.7917 9.68428 19.7917V18.5417Z" fill="currentColor"/>
<path d="M11.4738 10.8333V19.1666" stroke="currentColor" strokeWidth="1.5"/>
</g>
<defs>
<filter id="filter0_d_2_3943" x="0.5" y="0" width="29" height="29" filterUnits="userSpaceOnUse" color-interpolation-filters="sRGB">
<feFlood flood-opacity="0" result="BackgroundImageFix"/>
<feColorMatrix in="SourceAlpha" type="matrix" values="0 0 0 0 0 0 0 0 0 0 0 0 0 0 0 0 0 0 127 0" result="hardAlpha"/>
<feMorphology radius="0.5" operator="dilate" in="SourceAlpha" result="effect1_dropShadow_2_3943"/>
<feOffset dy="0.5"/>
<feGaussianBlur stdDeviation="0.5"/>
<feComposite in2="hardAlpha" operator="out"/>
<feColorMatrix type="matrix" values="0 0 0 0 0 0 0 0 0 0 0 0 0 0 0 0 0 0 0.1 0"/>
<feBlend mode="normal" in2="BackgroundImageFix" result="effect1_dropShadow_2_3943"/>
<feBlend mode="normal" in="SourceGraphic" in2="effect1_dropShadow_2_3943" result="shape"/>
</filter>
<clipPath id="clip0_2_3943">
<rect width="17" height="15" fill="white" transform="translate(7.00012 5)"/>
</clipPath>
</defs>
</svg>
