<svg width="20" height="21" viewBox="0 0 20 21" fill="none" xmlns="http://www.w3.org/2000/svg">
<path d="M2.0625 20.6191C1.5125 20.6191 1.0415 20.4235 0.6495 20.0321C0.258167 19.6401 0.0625 19.1691 0.0625 18.6191V4.61914C0.0625 4.06914 0.258167 3.59814 0.6495 3.20614C1.0415 2.81481 1.5125 2.61914 2.0625 2.61914H6.2375C6.42083 2.03581 6.77917 1.55647 7.3125 1.18114C7.84583 0.806474 8.42917 0.619141 9.0625 0.619141C9.72917 0.619141 10.3252 0.806474 10.8505 1.18114C11.3752 1.55647 11.7292 2.03581 11.9125 2.61914H16.0625C16.6125 2.61914 17.0835 2.81481 17.4755 3.20614C17.8668 3.59814 18.0625 4.06914 18.0625 4.61914V10.6191H16.0625V4.61914H14.0625V7.61914H4.0625V4.61914H2.0625V18.6191H7.0625V20.6191H2.0625ZM15.0625 20.6191L13.6625 19.1941L15.2375 17.6191H9.0625V15.6191H15.2375L13.6625 14.0191L15.0625 12.6191L19.0625 16.6191L15.0625 20.6191ZM9.0625 4.61914C9.34583 4.61914 9.5835 4.52314 9.7755 4.33114C9.96683 4.13981 10.0625 3.90247 10.0625 3.61914C10.0625 3.33581 9.96683 3.09814 9.7755 2.90614C9.5835 2.71481 9.34583 2.61914 9.0625 2.61914C8.77917 2.61914 8.54183 2.71481 8.3505 2.90614C8.1585 3.09814 8.0625 3.33581 8.0625 3.61914C8.0625 3.90247 8.1585 4.13981 8.3505 4.33114C8.54183 4.52314 8.77917 4.61914 9.0625 4.61914Z" fill="#133DA5"/>
</svg>
