    <svg
      fill="none"
      stroke="currentColor"
      strokeLinecap="round"
      strokeLinejoin="round"
      strokeWidth="2"
      viewBox="0 0 24 24"
      height="1.4em"
      width="1.4em"
    >
      <path stroke="none" d="M0 0h24v24H0z" />
      <path d="M4 3 H8 A1 1 0 0 1 9 4 V8 A1 1 0 0 1 8 9 H4 A1 1 0 0 1 3 8 V4 A1 1 0 0 1 4 3 z" />
      <path d="M16 15 H20 A1 1 0 0 1 21 16 V20 A1 1 0 0 1 20 21 H16 A1 1 0 0 1 15 20 V16 A1 1 0 0 1 16 15 z" />
      <path d="M21 11V8a2 2 0 00-2-2h-6l3 3m0-6l-3 3M3 13v3a2 2 0 002 2h6l-3-3m0 6l3-3" />
    </svg>