<?xml version="1.0" encoding="iso-8859-1"?>
<!-- Uploaded to: SVG Repo, www.svgrepo.com, Generator: SVG Repo Mixer Tools -->
<svg fill="#000000" height="800px" width="800px" version="1.1" id="Layer_1" xmlns="http://www.w3.org/2000/svg" xmlns:xlink="http://www.w3.org/1999/xlink" 
	 viewBox="0 0 490.5 490.5" xml:space="preserve">
<g>
	<g>
		<path d="M352,153.4V128h21.3c11.8,0,21.3-9.6,21.3-21.3V21.3C394.6,9.5,385,0,373.3,0h-256C105.5,0,96,9.5,96,21.3v85.3
			c0,11.8,9.6,21.3,21.3,21.3h21.3v25.4c-36.9,11-64,44.8-64,85.2v162.7c0,49.2,40.1,89.3,89.3,89.3h162.7
			c49.3,0,89.3-40.1,89.3-89.3V238.6C416,198.2,388.8,164.4,352,153.4z M287.6,321.9c-0.1,1.4-0.4,2.8-0.9,4.2
			c-0.4,1.4-0.9,2.7-1.6,4c-0.3,0.6-0.4,1.2-0.7,1.8l-42.7,64c-4.1,6.2-10.9,9.5-17.8,9.5c-4.1,0-8.2-1.2-11.8-3.6
			c-9.8-6.5-12.4-19.8-5.9-29.6l20.6-30.8h-24.1c-2.5,0-4.9-0.6-7.4-1.5c-0.7-0.3-1.4-0.6-2.1-1c-0.8-0.4-1.6-0.6-2.3-1.1
			c-0.6-0.4-0.9-1-1.4-1.5c-1.2-0.9-2.1-1.9-3.1-3.1c-0.9-1.1-1.6-2.1-2.2-3.3c-0.6-1.2-1.1-2.4-1.5-3.7c-0.4-1.4-0.7-2.8-0.9-4.2
			c-0.1-0.7-0.4-1.3-0.4-2s0.3-1.3,0.4-1.9c0.1-1.4,0.4-2.8,0.9-4.2c0.4-1.4,0.9-2.7,1.6-4c0.3-0.6,0.4-1.2,0.7-1.8l42.7-64
			c6.5-9.8,19.8-12.5,29.6-5.9c9.8,6.5,12.4,19.8,5.9,29.6l-20.6,30.8h24.1c0.7,0,1.2,0.3,1.9,0.4c1.5,0.1,2.8,0.4,4.2,0.9
			c1.4,0.4,2.7,0.9,3.9,1.6c0.6,0.3,1.2,0.4,1.8,0.7c0.6,0.4,0.9,1,1.4,1.4c1.2,0.9,2.1,1.9,3.1,3.1c0.9,1.1,1.6,2.1,2.2,3.3
			c0.6,1.2,1.1,2.4,1.5,3.7c0.4,1.4,0.7,2.8,0.9,4.2c0.1,0.7,0.4,1.3,0.4,2C288,320.7,287.6,321.2,287.6,321.9z M309.3,149.3h-128
			V128h128V149.3z"/>
	</g>
</g>
</svg>