<svg width="94" height="34" viewBox="0 0 94 34" fill="none" xmlns="http://www.w3.org/2000/svg">
<path d="M36.4062 13.3146C36.4062 14.1547 36.2835 14.9142 36.0347 15.5933C35.7859 16.2724 35.4274 16.8517 34.9622 17.3345C34.4937 17.814 33.9187 18.1841 33.2371 18.4448C32.5554 18.7055 31.7768 18.8343 30.9078 18.8343C30.546 18.8343 30.168 18.8182 29.7739 18.7828C29.3798 18.7506 28.9921 18.7055 28.6109 18.654C28.2297 18.5993 27.8647 18.5382 27.5158 18.4642C27.1669 18.3901 26.86 18.3129 26.5918 18.2356V3.53379L29.5833 3.05424V8.29387C29.9193 8.14582 30.265 8.03318 30.6268 7.95272C30.9886 7.87226 31.3763 7.83363 31.7898 7.83363C32.5393 7.83363 33.2015 7.96237 33.7766 8.22307C34.3516 8.48376 34.8329 8.85388 35.2206 9.33343C35.6083 9.81298 35.9022 10.3891 36.1025 11.065C36.3028 11.7376 36.403 12.4875 36.403 13.3146H36.4062ZM33.3533 13.2342C33.3533 11.3128 32.6426 10.3537 31.2244 10.3537C30.9175 10.3537 30.6106 10.3923 30.3102 10.4728C30.0097 10.5532 29.7642 10.653 29.5768 10.7721V16.1919C29.7255 16.2177 29.9128 16.2434 30.139 16.2627C30.3651 16.2821 30.6139 16.2917 30.882 16.2917C31.6993 16.2917 32.3131 16.0117 32.7299 15.4517C33.1434 14.8917 33.3533 14.1514 33.3533 13.231V13.2342Z" fill="#006DF2"/>
<path d="M43.1096 7.77569C43.9915 7.77569 44.7281 7.87547 45.3193 8.07501C45.9072 8.27455 46.3789 8.561 46.7343 8.93433C47.0896 9.30767 47.3384 9.76147 47.487 10.2957C47.6356 10.83 47.7066 11.4222 47.7066 12.0755V18.2743C47.277 18.3676 46.6826 18.477 45.9202 18.6058C45.1577 18.7313 44.2338 18.7956 43.1484 18.7956C42.4667 18.7956 41.8464 18.7345 41.2908 18.6154C40.7351 18.4963 40.257 18.3 39.8564 18.0264C39.4558 17.7529 39.1457 17.3956 38.9325 16.9579C38.7193 16.517 38.6127 15.9795 38.6127 15.339C38.6127 14.6986 38.7354 14.2061 38.9842 13.7781C39.2329 13.35 39.5625 13.0121 39.9792 12.7578C40.3927 12.5036 40.8676 12.3201 41.4039 12.2075C41.9401 12.0948 42.4958 12.0369 43.0708 12.0369C43.4585 12.0369 43.8042 12.053 44.1046 12.0884C44.405 12.1206 44.6506 12.1657 44.8379 12.2171V11.9371C44.8379 11.4318 44.6829 11.0231 44.376 10.7174C44.0691 10.4116 43.5328 10.2571 42.7704 10.2571C42.2632 10.2571 41.7592 10.2925 41.2649 10.3665C40.7707 10.4406 40.341 10.5436 39.9792 10.6755L39.598 8.27455C39.7724 8.21984 39.9889 8.16513 40.2506 8.10398C40.5122 8.04283 40.7965 7.99133 41.1034 7.94305C41.4103 7.898 41.7366 7.85616 42.0758 7.82397C42.4183 7.79179 42.7607 7.77248 43.1096 7.77248V7.77569ZM43.3519 16.4945C43.6459 16.4945 43.9269 16.488 44.195 16.4751C44.4632 16.4623 44.6764 16.443 44.8379 16.414V14.1547C44.7184 14.1289 44.5375 14.1032 44.2952 14.0742C44.0529 14.0484 43.8332 14.0356 43.6329 14.0356C43.3519 14.0356 43.087 14.0517 42.8415 14.0871C42.5927 14.1192 42.3763 14.1836 42.1889 14.277C42.0015 14.3703 41.8529 14.4958 41.7463 14.6567C41.6397 14.8176 41.5848 15.0172 41.5848 15.2554C41.5848 15.722 41.7431 16.0439 42.0564 16.2241C42.3698 16.4043 42.8027 16.4945 43.3519 16.4945Z" fill="#006DF2"/>
<path d="M54.0127 11.8341C54.3066 11.5155 54.6103 11.184 54.9237 10.8396C55.237 10.4953 55.5407 10.1541 55.8379 9.81618C56.1319 9.47824 56.4097 9.1564 56.6714 8.85065C56.9331 8.54489 57.156 8.28098 57.3433 8.05569H60.9002C60.1895 8.86674 59.4981 9.64238 58.8229 10.3794C58.1478 11.1164 57.408 11.8792 56.6036 12.6645C57.0041 13.025 57.4209 13.4562 57.8473 13.9583C58.2737 14.4604 58.6905 14.9753 59.0911 15.5096C59.4917 16.0439 59.8599 16.5781 60.1959 17.1124C60.5287 17.6467 60.813 18.1359 61.0391 18.5736H57.5986C57.3853 18.226 57.1398 17.843 56.8685 17.4214C56.5939 16.9997 56.3031 16.5781 55.9962 16.1597C55.6893 15.7381 55.3663 15.3358 55.0238 14.9464C54.6846 14.5602 54.3454 14.2319 54.0127 13.9648V18.5768H51.0212V3.53378L54.0127 3.05423V11.8309V11.8341Z" fill="#006DF2"/>
<path d="M62.0212 13.3951C62.0212 12.4617 62.1666 11.6442 62.4541 10.9458C62.7416 10.2474 63.1196 9.66169 63.588 9.19501C64.0564 8.72834 64.5959 8.37431 65.2033 8.13615C65.8106 7.89476 66.4373 7.77568 67.0802 7.77568C68.5792 7.77568 69.7648 8.2327 70.6338 9.14674C71.5028 10.0608 71.9389 11.4029 71.9389 13.1762C71.9389 13.35 71.9325 13.5399 71.9196 13.7459C71.9066 13.9519 71.8937 14.1353 71.8808 14.2962H65.0967C65.1645 14.911 65.452 15.397 65.9592 15.7574C66.4664 16.1179 67.1513 16.2981 68.0074 16.2981C68.5566 16.2981 69.0928 16.2466 69.6226 16.1469C70.1525 16.0471 70.5821 15.9248 70.9181 15.7767L71.3187 18.197C71.1571 18.2775 70.9439 18.3579 70.6758 18.4384C70.4077 18.5188 70.1105 18.5897 69.7809 18.6476C69.4514 18.7087 69.1025 18.757 68.7278 18.7989C68.353 18.8375 67.9783 18.86 67.6036 18.86C66.6538 18.86 65.8268 18.7184 65.1257 18.4416C64.4247 18.1616 63.84 17.7786 63.378 17.2926C62.916 16.8066 62.5736 16.2305 62.3539 15.5611C62.1342 14.8949 62.0212 14.1739 62.0212 13.4015V13.3951ZM69.0476 12.2558C69.0347 12.0015 68.9895 11.7569 68.9184 11.5155C68.8441 11.2741 68.731 11.0617 68.5759 10.875C68.4209 10.6884 68.2271 10.5339 67.9945 10.4148C67.7586 10.2957 67.4679 10.2346 67.1222 10.2346C66.7765 10.2346 66.4987 10.2925 66.2597 10.4051C66.0174 10.5178 65.8171 10.6691 65.6588 10.8557C65.4972 11.0424 65.3745 11.258 65.2873 11.5059C65.2 11.7537 65.1354 12.0015 65.0967 12.2558H69.0508H69.0476Z" fill="#006DF2"/>
<path d="M81.2138 10.6948C80.9457 10.6272 80.6323 10.5597 80.2705 10.4856C79.9087 10.4116 79.521 10.3762 79.1075 10.3762C78.9202 10.3762 78.6972 10.3923 78.4356 10.4277C78.1739 10.4599 77.9768 10.4985 77.8444 10.5371V18.5768H74.8529V8.61572C75.3892 8.42905 76.0191 8.25203 76.7492 8.08467C77.4793 7.91731 78.2902 7.83363 79.1883 7.83363C79.3498 7.83363 79.5437 7.84329 79.7698 7.8626C79.9959 7.88191 80.2253 7.91088 80.4514 7.94306C80.6776 7.97525 80.9069 8.01708 81.1331 8.06214C81.3592 8.11042 81.5563 8.16513 81.7146 8.23272L81.2138 10.6916V10.6948Z" fill="#006DF2"/>
<path d="M93.9422 8.05569C93.3381 10.0833 92.7081 11.9822 92.0491 13.7556C91.39 15.5289 90.6729 17.2476 89.8943 18.9147C89.6132 19.5134 89.3322 20.0251 89.0511 20.4435C88.7701 20.8619 88.4599 21.2095 88.1272 21.483C87.7912 21.7566 87.4132 21.9562 86.99 22.0817C86.5668 22.2072 86.0758 22.2716 85.5137 22.2716C85.0453 22.2716 84.6124 22.2297 84.215 22.1428C83.8209 22.0559 83.4946 21.9594 83.2394 21.8532L83.7627 19.4747C84.0696 19.5809 84.3442 19.655 84.5865 19.6936C84.8288 19.7322 85.0808 19.7547 85.3489 19.7547C85.8852 19.7547 86.2955 19.6099 86.583 19.3235C86.8705 19.037 87.116 18.6412 87.3163 18.1326C86.6314 16.8002 85.9498 15.3036 85.2682 13.6429C84.5865 11.9822 83.9436 10.1187 83.3395 8.05247H86.5119C86.6476 8.57386 86.8059 9.13709 86.9868 9.74216C87.1677 10.3504 87.3583 10.9619 87.5618 11.5831C87.7621 12.2043 87.9689 12.8061 88.1756 13.3919C88.3824 13.9776 88.5827 14.5119 88.7701 14.9914C88.9445 14.5119 89.1254 13.9776 89.3128 13.3919C89.5002 12.8061 89.6843 12.201 89.8684 11.5831C90.0494 10.9619 90.2238 10.3504 90.3918 9.74216C90.5598 9.13709 90.7116 8.57064 90.8441 8.05247H93.9389L93.9422 8.05569Z" fill="#006DF2"/>
<path d="M28.2524 24.544H31.6283V25.8764H28.2524V29.9735C28.2524 30.4177 28.2879 30.7846 28.3557 31.0742C28.4236 31.3639 28.527 31.5924 28.6626 31.7565C28.7983 31.9207 28.9695 32.0398 29.1763 32.1073C29.383 32.1749 29.6221 32.2103 29.8967 32.2103C30.3781 32.2103 30.7625 32.1556 31.0532 32.0494C31.344 31.94 31.5475 31.866 31.6606 31.8177L31.9707 33.1308C31.8092 33.2113 31.5314 33.311 31.1308 33.4301C30.7302 33.5492 30.2747 33.6104 29.761 33.6104C29.1537 33.6104 28.6562 33.5331 28.262 33.3786C27.8679 33.2241 27.5513 32.9956 27.3123 32.6867C27.0732 32.3777 26.902 32.0011 26.8051 31.5506C26.7082 31.1 26.6597 30.5818 26.6597 29.9896V22.0658L28.2524 21.7922V24.5408V24.544Z" fill="#FF8A33"/>
<path d="M33.46 28.9983C33.46 28.213 33.5731 27.5275 33.8024 26.9417C34.0318 26.356 34.3322 25.87 34.7102 25.4806C35.0882 25.0944 35.5211 24.8047 36.0121 24.6084C36.5032 24.4153 37.0071 24.3187 37.5208 24.3187C38.7193 24.3187 39.64 24.6921 40.2797 25.4355C40.9193 26.1822 41.2391 27.3151 41.2391 28.8406V29.1045C41.2391 29.214 41.2327 29.3137 41.223 29.4039H35.1205C35.1883 30.3243 35.4565 31.0259 35.9249 31.5055C36.3933 31.985 37.1234 32.2232 38.1184 32.2232C38.6773 32.2232 39.149 32.1749 39.5334 32.0784C39.9146 31.9818 40.2054 31.8885 40.3992 31.7952L40.6221 33.1276C40.4283 33.2306 40.0891 33.34 39.6013 33.4527C39.1167 33.5653 38.5642 33.6232 37.9472 33.6232C37.1687 33.6232 36.4999 33.5074 35.9346 33.2724C35.3692 33.0407 34.904 32.7189 34.539 32.3069C34.1739 31.8981 33.9026 31.4089 33.7249 30.8457C33.5472 30.2825 33.46 29.6645 33.46 28.9919V28.9983ZM39.5786 28.1261C39.5916 27.4084 39.4106 26.8194 39.0391 26.3592C38.6676 25.899 38.1572 25.6672 37.5046 25.6672C37.1396 25.6672 36.8165 25.738 36.5355 25.8797C36.2544 26.0213 36.0186 26.2079 35.8247 26.4332C35.6309 26.6617 35.4791 26.9224 35.3692 27.2185C35.2594 27.5146 35.1883 27.8172 35.156 28.1229H39.5786V28.1261Z" fill="#FF8A33"/>
<path d="M47.8908 33.6264C47.1704 33.6264 46.5405 33.5138 45.9977 33.2853C45.455 33.0568 44.9963 32.7382 44.628 32.3294C44.2565 31.9207 43.9786 31.4315 43.7977 30.8682C43.6136 30.305 43.5231 29.6806 43.5231 28.9983C43.5231 28.316 43.6233 27.6884 43.8236 27.1188C44.0239 26.5491 44.3049 26.0567 44.6732 25.6415C45.0383 25.2263 45.4873 24.9012 46.0171 24.6695C46.5469 24.4378 47.1413 24.3187 47.7907 24.3187C48.1913 24.3187 48.5919 24.3541 48.9892 24.4217C49.3898 24.4893 49.771 24.5987 50.1361 24.7468L49.7775 26.0953C49.5384 25.9826 49.2606 25.8893 48.9472 25.8217C48.6338 25.7541 48.2979 25.7187 47.9457 25.7187C47.0541 25.7187 46.3725 25.9987 45.8976 26.5555C45.4227 27.1123 45.1869 27.9266 45.1869 28.9983C45.1869 29.4779 45.2418 29.9156 45.3484 30.3115C45.4582 30.7105 45.6294 31.0517 45.862 31.3349C46.0946 31.6181 46.3951 31.8402 46.7634 31.9915C47.1284 32.146 47.5742 32.2232 48.1008 32.2232C48.524 32.2232 48.9052 32.1846 49.2477 32.1041C49.5901 32.0237 49.8582 31.94 50.0521 31.8467L50.275 33.1791C50.1845 33.237 50.0521 33.2885 49.8808 33.34C49.7096 33.3915 49.5158 33.4366 49.2993 33.4752C49.0829 33.5138 48.8503 33.5492 48.6048 33.5782C48.3593 33.6071 48.1234 33.62 47.8941 33.62L47.8908 33.6264Z" fill="#FF8A33"/>
<path d="M52.4685 33.4205V20.4437L54.0612 20.1701V24.7114C54.3584 24.5987 54.675 24.5086 55.0109 24.4474C55.3469 24.3863 55.6829 24.3541 56.0124 24.3541C56.7199 24.3541 57.3079 24.4539 57.7763 24.6534C58.2447 24.853 58.6195 25.133 58.9005 25.4902C59.1816 25.8475 59.3786 26.2787 59.4917 26.7808C59.6048 27.2829 59.6629 27.8333 59.6629 28.4383V33.4237H58.0703V28.7795C58.0703 28.2323 58.0315 27.7657 57.9572 27.3795C57.8829 26.9932 57.7601 26.6778 57.5889 26.4397C57.4177 26.2015 57.1883 26.0277 56.904 25.9183C56.6165 25.8088 56.2644 25.7574 55.8412 25.7574C55.67 25.7574 55.4923 25.7702 55.3114 25.7928C55.1272 25.8153 54.9528 25.841 54.788 25.87C54.6233 25.899 54.4747 25.9312 54.3422 25.9633C54.2098 25.9987 54.1161 26.0245 54.0612 26.0502V33.4269H52.4685V33.4205Z" fill="#FF8A33"/>
<path d="M10.3167 12.4135V12.5906C10.3167 12.6935 10.3167 12.7579 10.3167 12.774V13.8747C9.31196 12.0981 7.43502 11.1712 6.25264 10.5887C6.15249 10.5404 6.0588 10.4953 5.97158 10.4503C5.46762 10.196 4.89904 9.94177 4.32077 9.69717C2.46967 8.83141 1.53282 7.79507 1.10639 6.17298C0.786562 4.94031 0.744565 3.30212 0.705798 1.85704C0.692876 1.36784 0.679954 0.907601 0.660571 0.47633C0.654109 0.337937 0.650879 0.164141 0.650879 0C1.68788 0.366903 4.02356 1.22623 5.61299 2.0244C5.70344 2.06946 5.79713 2.11452 5.89728 2.16601C7.14427 2.78074 9.22797 3.80742 9.93868 5.83182L9.94515 5.85113C10.265 6.63965 10.3231 8.72198 10.3199 9.49763C10.3134 9.49763 10.307 9.50085 10.3037 9.50407C10.2811 9.5105 10.2617 9.51694 10.2391 9.52659C10.2262 9.52981 10.2133 9.53625 10.2004 9.53947C10.181 9.54912 10.1616 9.55878 10.139 9.56843C10.1228 9.57487 10.1099 9.58131 10.0938 9.59096C10.0776 9.5974 10.0647 9.60705 10.0485 9.61671C10.0356 9.62315 10.0227 9.6328 10.0065 9.63924C9.98714 9.64889 9.96776 9.66177 9.94838 9.67786C9.94192 9.68108 9.93545 9.68752 9.92899 9.69073C9.92253 9.69395 9.9193 9.69717 9.91284 9.70039C9.89669 9.71326 9.88054 9.72614 9.86438 9.73901C9.85792 9.74545 9.84823 9.75189 9.84177 9.76154C9.82238 9.77763 9.803 9.79373 9.78685 9.81304C9.761 9.83556 9.73516 9.86131 9.71255 9.89028C9.68993 9.91603 9.66732 9.94499 9.6447 9.97074C9.62209 9.99649 9.60271 10.0287 9.58332 10.0576C9.56717 10.0834 9.55102 10.1091 9.53487 10.1381C9.46379 10.2668 9.41534 10.4084 9.38949 10.5565C9.38949 10.5694 9.38626 10.5822 9.38303 10.5951C9.37657 10.6305 9.37657 10.6691 9.37334 10.7078C9.37334 10.7303 9.37334 10.7528 9.37334 10.7786C9.37334 10.8043 9.37334 10.8236 9.37334 10.8494C9.37334 10.888 9.3798 10.9234 9.38303 10.962C9.38303 10.9749 9.38626 10.9878 9.38949 11.0006C9.39595 11.0296 9.39918 11.0586 9.40888 11.0875C9.41534 11.1165 9.4218 11.1455 9.43149 11.1712C9.43795 11.1937 9.44441 11.2163 9.4541 11.2388C9.46703 11.271 9.47995 11.3032 9.49287 11.3354C9.50579 11.3611 9.51871 11.3869 9.53164 11.4126C9.54456 11.4384 9.56071 11.4609 9.57363 11.4834C9.58656 11.5059 9.60271 11.5285 9.61886 11.551C9.61886 11.551 9.62209 11.5574 9.62532 11.5574C9.64147 11.58 9.65763 11.6025 9.67701 11.6218C9.68993 11.6379 9.70286 11.654 9.71901 11.6701C9.73193 11.6862 9.74808 11.7023 9.76423 11.7151C9.77716 11.728 9.79008 11.7409 9.803 11.7538C9.80946 11.7602 9.81269 11.7634 9.81915 11.7666C9.83208 11.7795 9.84823 11.7924 9.86115 11.802C9.87084 11.8085 9.88054 11.8181 9.89023 11.8246C9.90315 11.8342 9.91607 11.8439 9.92899 11.8535C9.98068 11.8922 10.0324 11.9243 10.0873 11.9533C10.1002 11.9597 10.1131 11.9662 10.1261 11.9726C10.1487 11.9823 10.1713 11.9951 10.1939 12.0048C10.2068 12.0112 10.2197 12.0145 10.2327 12.0177C10.2553 12.0273 10.2747 12.0338 10.2973 12.0402C10.3037 12.0402 10.307 12.0434 10.3134 12.0466V12.4135H10.3167Z" fill="#FF8A33"/>
<path d="M9.2923 20.1925C9.2923 20.8233 9.72842 21.3511 10.3164 21.4927V21.5635V21.7405C10.3164 21.8403 10.3164 21.9079 10.3164 21.924V23.0343C9.31168 21.2578 7.43474 20.3308 6.25236 19.7483C6.15221 19.7 6.05853 19.655 5.9713 19.6099C5.53195 19.3911 5.04737 19.169 4.54663 18.9534C4.5111 18.9373 4.47556 18.9212 4.44002 18.9019C4.44002 18.8986 4.44002 18.8954 4.44002 18.889C4.44325 18.8632 4.44649 18.8343 4.44649 18.8053C4.44649 18.7731 4.44972 18.7409 4.44972 18.7088C4.44972 17.9685 3.84884 17.3699 3.10581 17.3699C3.07351 17.3699 3.0412 17.3699 3.01213 17.3731H3.00566C2.97336 17.3731 2.94428 17.3795 2.91198 17.3828C2.88613 17.386 2.86029 17.3892 2.83768 17.3956C2.82798 17.3956 2.81506 17.4021 2.80537 17.4021C2.77953 17.4085 2.75691 17.4149 2.73107 17.4214C2.73107 17.4214 2.72461 17.4214 2.72138 17.4214C2.69553 17.4278 2.66969 17.4375 2.64384 17.4471C2.64384 17.4471 2.63738 17.4471 2.63415 17.4503C2.60831 17.46 2.57923 17.4729 2.55339 17.4825C2.55339 17.4825 2.54693 17.4825 2.5437 17.489C2.48878 17.5147 2.43709 17.5437 2.3854 17.5759C1.74575 16.9579 1.34517 16.2306 1.10611 15.3133C0.786283 14.0806 0.741055 12.4424 0.702289 10.9974C0.689366 10.5082 0.676444 10.0479 0.657061 9.61665C0.6506 9.47826 0.647369 9.30446 0.647369 9.1371C1.36778 9.39458 2.71492 9.88378 4.0039 10.4277C4.07497 10.4631 4.14928 10.4953 4.22035 10.5275V10.521C4.71139 10.7302 5.18628 10.9459 5.60625 11.1583C5.69671 11.2033 5.79039 11.2516 5.89054 11.2999C7.13753 11.9146 9.22122 12.9413 9.93194 14.9657L9.93841 14.985C10.2388 15.722 10.3067 17.5984 10.3131 18.4706V18.6444C10.3131 18.6444 10.3131 18.654 10.3131 18.6605V18.8825C9.72519 19.0274 9.28907 19.552 9.28907 20.1828L9.2923 20.1925Z" fill="#FF8A33"/>
<path d="M10.3177 30.1376V30.1678C10.3177 30.1678 10.2974 30.1611 10.2873 30.1578C10.2974 30.151 10.3076 30.1443 10.3177 30.1342V30.1376Z" fill="#FF8A33"/>
<path d="M10.3164 27.6367V27.8105C10.3164 27.8105 10.3164 27.8202 10.3164 27.8266V29.4197C10.297 29.4262 10.2776 29.4326 10.2582 29.4391C10.2421 29.4455 10.2259 29.4519 10.2065 29.4584C10.1904 29.4648 10.171 29.4745 10.1549 29.4809C10.1387 29.4873 10.1226 29.497 10.1064 29.5034C10.0903 29.5099 10.0741 29.5195 10.0579 29.5292C10.0483 29.5324 10.0418 29.5388 10.0353 29.542C10.0289 29.5485 10.0192 29.5517 10.0127 29.5581C9.9901 29.571 9.97072 29.5839 9.94811 29.6C9.9158 29.6225 9.88673 29.645 9.85765 29.6708C9.84796 29.6804 9.83504 29.6901 9.82535 29.6965C9.82535 29.6965 9.82535 29.6997 9.81888 29.703C9.80919 29.7126 9.79627 29.7255 9.78658 29.7352C9.77689 29.7448 9.76396 29.7577 9.75427 29.7673C9.74135 29.7802 9.73166 29.7899 9.71874 29.806C9.70582 29.8188 9.69612 29.8317 9.68643 29.8446C9.6832 29.851 9.67997 29.8542 9.67674 29.8575C9.66705 29.8703 9.65413 29.8832 9.64443 29.8993C9.63474 29.9122 9.62505 29.925 9.61536 29.9411C8.15192 29.4584 5.75163 28.6473 4.5531 28.1098C2.55017 27.2215 1.55193 26.1691 1.11258 24.4794C0.792752 23.2468 0.747525 21.6086 0.708758 20.1635C0.695836 19.6743 0.682914 19.2141 0.663531 18.7828C0.65707 18.6444 0.653839 18.4706 0.653839 18.3065C0.941357 18.4094 1.32902 18.5478 1.77484 18.7152C1.77484 19.4587 2.37572 20.0573 3.11874 20.0573C3.14136 20.0573 3.16397 20.0573 3.18981 20.0573C3.20597 20.0573 3.22535 20.0573 3.2415 20.0541C3.25442 20.0541 3.26735 20.0541 3.28027 20.0541C3.28027 20.0541 3.28027 20.0541 3.28673 20.0541C3.29319 20.0541 3.28996 20.0541 3.29319 20.0541C3.30611 20.0541 3.32227 20.0541 3.33519 20.0476C3.3578 20.0476 3.37719 20.0412 3.3998 20.038C3.41272 20.038 3.42887 20.0315 3.4418 20.0283C3.45795 20.0251 3.47087 20.0219 3.48702 20.0155C3.48702 20.0155 3.49025 20.0155 3.49348 20.0155C3.50964 20.0122 3.52256 20.0058 3.53871 20.0026C3.58394 19.9897 3.62594 19.9736 3.66793 19.9543C3.69055 19.9446 3.70993 19.935 3.72931 19.9253C3.75193 19.9157 3.77131 19.9028 3.79069 19.8932C3.79069 19.8932 3.79716 19.8932 3.79716 19.8899C3.79716 19.8899 3.80362 19.8899 3.80362 19.8835C3.823 19.8738 3.84238 19.861 3.85854 19.8513C3.86823 19.8449 3.87792 19.8384 3.88761 19.832C3.8973 19.8256 3.90699 19.8191 3.91345 19.8127C3.92315 19.8063 3.92961 19.7998 3.9393 19.7934C3.96191 19.7741 3.98453 19.7548 4.00714 19.7387C4.02329 19.7258 4.03945 19.7097 4.0556 19.6968C4.07175 19.6807 4.0879 19.6646 4.10406 19.6485C4.64033 19.8771 5.16367 20.112 5.62564 20.3437C5.7161 20.3888 5.80978 20.4371 5.90993 20.4853C7.15692 21.1001 9.24062 22.1268 9.95134 24.1512L9.9578 24.1705C10.2582 24.9075 10.3261 26.7838 10.3325 27.656L10.3164 27.6367Z" fill="#FF8A33"/>
<path d="M20.7898 21.5571C20.7898 21.7212 20.7866 21.895 20.7801 22.0334C20.7575 22.4647 20.7446 22.9249 20.7316 23.4141C20.6929 24.8592 20.6509 26.5006 20.3278 27.7301C19.8852 29.4197 18.8902 30.4722 16.8841 31.3605C15.4659 31.9945 12.3581 33.018 11.1176 33.4203V31.9687C11.1466 31.9591 11.1789 31.9494 11.208 31.9366C11.2177 31.9333 11.2274 31.9301 11.2371 31.9237C11.2629 31.914 11.2855 31.9012 11.3114 31.8915C11.3275 31.8851 11.3437 31.8754 11.3598 31.8658C11.3728 31.8593 11.3857 31.8529 11.3986 31.8432C11.418 31.8336 11.4341 31.8207 11.4535 31.8078C11.4697 31.7982 11.4826 31.7885 11.4988 31.7756C11.5214 31.7595 11.544 31.7435 11.5666 31.7241C11.5763 31.7177 11.586 31.7081 11.5957 31.6984C11.6118 31.6823 11.6312 31.6694 11.6474 31.6501C11.67 31.6308 11.6926 31.6083 11.712 31.5825C11.7249 31.5664 11.7378 31.5503 11.7507 31.5343C11.7701 31.5117 11.7863 31.4924 11.8024 31.4699C11.8024 31.4699 11.8024 31.4634 11.8089 31.4634C11.8154 31.4634 11.8089 31.457 11.8154 31.457C11.8283 31.4377 11.8412 31.4184 11.8541 31.3959C11.8606 31.383 11.8703 31.3733 11.8767 31.3605C11.8832 31.3476 11.8929 31.3379 11.8993 31.3251C11.9123 31.3025 11.9252 31.2768 11.9349 31.251C11.9349 31.251 11.9349 31.2446 11.9381 31.2446L11.9543 31.2124C11.9543 31.2124 11.9543 31.206 11.9575 31.1995C11.964 31.1834 11.9704 31.1706 11.9769 31.1545C11.993 31.1094 12.0092 31.0644 12.0189 31.0161C12.0189 31.0032 12.0253 30.9903 12.0286 30.9742C12.035 30.9517 12.0383 30.9292 12.0415 30.9067C12.0415 30.897 12.0447 30.8841 12.0479 30.8713C12.0479 30.8584 12.0512 30.8455 12.0544 30.8326C12.0544 30.8069 12.0609 30.7811 12.0609 30.7554C12.0609 30.7329 12.0609 30.7103 12.0609 30.6846C12.0609 30.6588 12.0609 30.6395 12.0609 30.6138C12.0609 30.5913 12.0609 30.5719 12.0544 30.5494C12.0544 30.5398 12.0544 30.5301 12.0544 30.5204C12.0544 30.5044 12.0512 30.485 12.0479 30.469C12.0479 30.4496 12.0415 30.4303 12.0383 30.4142C12.035 30.3917 12.0286 30.3724 12.0221 30.3499C12.0124 30.3048 11.9963 30.263 11.9801 30.2179C11.9736 30.1986 11.9672 30.1793 11.9575 30.1632C11.9446 30.1342 11.9317 30.1053 11.9155 30.0763C11.8993 30.0473 11.8832 30.0184 11.867 29.9926C11.8573 29.9733 11.8444 29.9572 11.8315 29.9379C11.825 29.9283 11.8186 29.9186 11.8089 29.9089C11.7895 29.8832 11.7734 29.8607 11.754 29.8349C11.754 29.8349 11.7507 29.8317 11.7475 29.8285C11.7249 29.8027 11.7023 29.777 11.6797 29.7545C11.67 29.7416 11.6571 29.7319 11.6441 29.7191C11.6312 29.7062 11.6183 29.6965 11.6054 29.6837C11.5795 29.6611 11.5537 29.6418 11.5278 29.6193C11.5084 29.6032 11.4891 29.5903 11.4665 29.5774C11.4568 29.571 11.4438 29.5613 11.4309 29.5549C11.418 29.5485 11.4051 29.5388 11.3921 29.5324C11.3792 29.5259 11.3695 29.5195 11.3534 29.5099C11.3534 29.5099 11.3275 29.497 11.3146 29.4905C11.3017 29.4841 11.2888 29.4777 11.2759 29.4712C11.2759 29.4712 11.2532 29.4584 11.2403 29.4551C11.2177 29.4455 11.1919 29.4358 11.166 29.4262C11.2177 28.6473 11.3146 27.8266 11.4891 27.3986L11.4955 27.3792C12.2062 25.3548 14.2899 24.3282 15.5369 23.7134C15.6371 23.6619 15.734 23.6169 15.8245 23.5718C17.4139 22.7769 19.7496 21.9175 20.7866 21.5506L20.7898 21.5571Z" fill="#FF8A33"/>
<path d="M20.7898 12.3974C20.7898 12.5615 20.7866 12.7353 20.7801 12.8737C20.7575 13.305 20.7478 13.7652 20.7349 14.2544C20.6961 15.6995 20.6541 17.3409 20.3311 18.5704C19.8885 20.2601 18.8935 21.3125 16.8905 22.2008C16.3898 22.4164 15.9052 22.6385 15.4691 22.8573C15.3819 22.9024 15.2882 22.9475 15.188 22.9957C14.0057 23.5783 12.1287 24.5052 11.124 26.2818V21.6987C11.124 21.6182 11.124 21.5281 11.124 21.4316C11.6248 21.2385 11.9769 20.7525 11.9769 20.186C11.9769 19.6872 11.7055 19.2559 11.3017 19.0242C11.3534 18.7088 11.4148 18.4352 11.4955 18.2421L11.502 18.2228C12.2127 16.1984 14.2964 15.1717 15.5434 14.557C15.6436 14.5087 15.7372 14.4604 15.8277 14.4154C16.2509 14.2062 16.7226 13.9905 17.2136 13.7781V13.7845C17.2653 13.762 17.3137 13.7395 17.3622 13.717C17.3913 13.7459 17.4236 13.7717 17.4559 13.7974C17.4688 13.8071 17.4785 13.8167 17.4947 13.8264C17.5237 13.8489 17.556 13.8682 17.5883 13.8875C17.6045 13.8972 17.6239 13.9068 17.64 13.9165C17.7079 13.9519 17.7757 13.9841 17.85 14.0066C17.8662 14.0131 17.8823 14.0163 17.9017 14.0227C17.9792 14.0452 18.0632 14.0613 18.1472 14.071C18.1634 14.071 18.1828 14.071 18.1989 14.0742C18.228 14.0742 18.2538 14.0742 18.2829 14.0742C18.312 14.0742 18.3378 14.0742 18.3669 14.0742C18.3863 14.0742 18.4024 14.0742 18.4218 14.071C18.5123 14.0613 18.6027 14.042 18.69 14.0163C18.7093 14.0098 18.7287 14.0034 18.7481 13.997C18.8515 13.9583 18.9484 13.9101 19.0388 13.8489C19.055 13.836 19.0744 13.8264 19.0905 13.8103C19.1261 13.7845 19.1584 13.7556 19.1907 13.7266C19.223 13.6976 19.2521 13.6687 19.2811 13.6365C19.3102 13.6043 19.3361 13.5721 19.3651 13.5367C19.3781 13.5206 19.391 13.5013 19.4039 13.4852C19.5008 13.3436 19.5687 13.1827 19.6042 13.0089C19.6107 12.9864 19.6107 12.9671 19.6171 12.9445C19.6236 12.9027 19.6268 12.8576 19.63 12.8126C20.0952 12.6388 20.5023 12.4939 20.7995 12.3877L20.7898 12.3974Z" fill="#FF8A33"/>
<path d="M20.7898 3.25378C20.7898 3.41792 20.7866 3.59494 20.7801 3.73333C20.7575 4.16139 20.7478 4.62484 20.7349 5.11404C20.6961 6.55913 20.6541 8.20053 20.3311 9.42998C20.0953 10.3344 19.6979 11.0553 19.0744 11.6668C19.0712 11.6668 19.0679 11.6604 19.0647 11.6604C19.0486 11.6475 19.0292 11.6346 19.013 11.625C19.0001 11.6185 18.9904 11.6089 18.9775 11.6024C18.971 11.5992 18.9678 11.596 18.9613 11.5928C18.9452 11.5831 18.9258 11.5735 18.9064 11.5638C18.8709 11.5477 18.8354 11.5284 18.803 11.5155C18.7707 11.5027 18.7384 11.4898 18.7061 11.4801C18.69 11.4737 18.6771 11.4705 18.6609 11.4673C18.606 11.4512 18.5543 11.4383 18.4994 11.4286C18.4865 11.4286 18.4703 11.4222 18.4574 11.4222C18.4445 11.4222 18.4315 11.419 18.4186 11.4158C18.396 11.4158 18.3734 11.4125 18.3508 11.4093C18.3282 11.4093 18.3055 11.4093 18.2797 11.4093C17.5367 11.4093 16.9358 12.008 16.9358 12.7482C16.9358 12.8415 16.9455 12.9316 16.9616 13.0185C16.4383 13.2406 15.9246 13.4756 15.4659 13.7041C15.3787 13.7491 15.285 13.7942 15.1848 13.8425C14.0025 14.425 12.1255 15.3519 11.1208 17.1285V12.5583C11.1208 12.4103 11.1208 12.2365 11.1305 12.0434C11.1564 12.0337 11.1854 12.024 11.2113 12.0144C11.221 12.0144 11.2307 12.008 11.2371 12.0047C11.2662 11.9919 11.2953 11.979 11.3211 11.9661C11.3502 11.9532 11.3793 11.9371 11.4051 11.9211C11.4374 11.9017 11.4665 11.8824 11.4956 11.8599C11.5182 11.8438 11.544 11.8245 11.5666 11.8052C11.5763 11.7988 11.5892 11.7891 11.5989 11.7794C11.6183 11.7634 11.6345 11.7473 11.6506 11.7312C11.6539 11.7279 11.6603 11.7247 11.6636 11.7183C11.6862 11.6958 11.7055 11.6765 11.7249 11.6539C11.7249 11.6539 11.7314 11.6475 11.7314 11.6443C11.754 11.6185 11.7734 11.5928 11.7928 11.567C11.8154 11.5413 11.8315 11.5123 11.8509 11.4801C11.8606 11.4673 11.8703 11.4512 11.8768 11.4351C11.8865 11.419 11.8961 11.4061 11.9026 11.39C11.9091 11.3739 11.9188 11.3578 11.9252 11.345C11.9317 11.3289 11.9414 11.3095 11.9478 11.2935C11.9543 11.2774 11.9608 11.2613 11.9672 11.2452C11.9931 11.1808 12.0124 11.1132 12.0254 11.0456C12.0286 11.0263 12.0318 11.0102 12.0351 10.9909C12.0351 10.9813 12.0383 10.9716 12.0415 10.9587C12.0415 10.9555 12.0415 10.9491 12.0415 10.9459C12.0415 10.933 12.0415 10.9233 12.0448 10.9072C12.0448 10.8847 12.048 10.8622 12.0512 10.8397C12.0512 10.8171 12.0512 10.7946 12.0512 10.7689C12.0512 10.7431 12.0512 10.7174 12.0512 10.6948C12.0512 10.6787 12.0512 10.6659 12.048 10.6498C12.048 10.6401 12.048 10.6272 12.048 10.6176C12.048 10.6079 12.048 10.5951 12.0448 10.5854V10.579C12.0448 10.579 12.0448 10.579 12.0448 10.5757C12.0448 10.55 12.0383 10.5243 12.0318 10.4985C12.0318 10.4953 12.0318 10.4888 12.0318 10.4856C12.0254 10.4599 12.0189 10.4309 12.0124 10.4052V10.3987V10.3923C12.006 10.3665 11.9963 10.3408 11.9866 10.3183C11.9769 10.2893 11.964 10.2636 11.9543 10.2346C11.9446 10.2121 11.9317 10.1863 11.922 10.1638C11.9058 10.1348 11.8897 10.1059 11.8735 10.0801C11.8574 10.0511 11.838 10.0222 11.8186 9.99642C11.8089 9.98033 11.796 9.96746 11.7863 9.95137C11.7798 9.94171 11.7702 9.93206 11.7637 9.9224C11.7475 9.90309 11.7314 9.88378 11.7152 9.86769C11.6959 9.84516 11.6765 9.82585 11.6539 9.80654C11.6377 9.78723 11.6183 9.77113 11.5989 9.75504C11.5925 9.7486 11.586 9.74539 11.5796 9.73895C11.5602 9.72286 11.5376 9.70676 11.5149 9.69067C11.4956 9.6778 11.4762 9.66493 11.4568 9.65205C11.4568 9.65205 11.4503 9.65205 11.4503 9.64561C11.4213 9.6263 11.3954 9.61021 11.3663 9.59412C11.4051 9.40101 11.4503 9.23365 11.5053 9.10492L11.5117 9.0856C12.2224 7.0612 14.3061 6.03452 15.5531 5.4198C15.6533 5.37152 15.747 5.32324 15.8374 5.27819C17.4268 4.48001 19.7625 3.62391 20.7995 3.25378H20.7898Z" fill="#FF8A33"/>
<path d="M11.4083 10.7721C11.4083 10.9813 11.3114 11.1712 11.1628 11.2967C11.0433 11.3965 10.8882 11.4576 10.7202 11.4576C10.5716 11.4576 10.4295 11.4093 10.3164 11.3256C10.1419 11.2001 10.0321 10.9974 10.0321 10.7721C10.0321 10.5468 10.1452 10.3408 10.3164 10.2153C10.4295 10.1316 10.5716 10.0833 10.7202 10.0833C10.9302 10.0833 11.1176 10.1767 11.2436 10.3247C11.3469 10.4438 11.4083 10.5983 11.4083 10.7689V10.7721Z" fill="#FF8A33"/>
<path d="M18.9678 12.7482C18.9678 12.8834 18.929 13.0089 18.858 13.1151C18.7352 13.3082 18.522 13.4337 18.2765 13.4337C18.2183 13.4337 18.1602 13.4273 18.1085 13.4112C17.808 13.3372 17.5883 13.0668 17.5883 12.7482C17.5883 12.7386 17.5883 12.7289 17.5883 12.7192C17.6013 12.3523 17.9049 12.0627 18.2765 12.0627C18.3734 12.0627 18.4638 12.082 18.5478 12.1174C18.7933 12.2204 18.9646 12.465 18.9646 12.7482H18.9678Z" fill="#FF8A33"/>
<path d="M11.3243 20.1925C11.3243 20.3663 11.2597 20.524 11.1531 20.6463C11.0271 20.7911 10.843 20.8812 10.6362 20.8812C10.5199 20.8812 10.4101 20.8523 10.3164 20.8008C10.0967 20.6849 9.94812 20.4564 9.94812 20.1925C9.94812 19.9286 10.0967 19.7 10.3164 19.5842C10.4133 19.5327 10.5199 19.5037 10.6362 19.5037C10.8753 19.5037 11.0853 19.626 11.208 19.8095C11.2823 19.9189 11.3243 20.0476 11.3243 20.1893V20.1925Z" fill="#FF8A33"/>
<path d="M3.80041 18.712C3.80041 18.992 3.63242 19.2334 3.39013 19.3396C3.30613 19.3782 3.21245 19.3975 3.1123 19.3975C2.82801 19.3975 2.58249 19.2237 2.47911 18.9791C2.44358 18.8954 2.42419 18.8053 2.42419 18.712C2.42419 18.3934 2.64387 18.123 2.94431 18.0458C2.99923 18.0297 3.05415 18.0232 3.11553 18.0232C3.44828 18.0232 3.72933 18.2614 3.79071 18.5768C3.79717 18.6187 3.80364 18.6637 3.80364 18.712H3.80041Z" fill="#FF8A33"/>
<path d="M11.4083 30.6943C11.4083 30.9228 11.2953 31.1255 11.1208 31.251C11.0078 31.3347 10.8688 31.383 10.717 31.383C10.339 31.383 10.0289 31.074 10.0289 30.6975C10.0289 30.4818 10.129 30.2887 10.2841 30.1632C10.2938 30.1632 10.3035 30.1697 10.3132 30.1729V30.1439C10.4263 30.0602 10.5684 30.0119 10.717 30.0119C10.8656 30.0119 11.0207 30.0667 11.137 30.1536C11.3017 30.2791 11.4083 30.4754 11.4083 30.6975V30.6943Z" fill="#FF8A33"/>
<path d="M10.3177 30.1376V30.1679C10.3177 30.1679 10.2975 30.1611 10.2873 30.1578C10.2975 30.1511 10.3076 30.1443 10.3177 30.1342V30.1376Z" fill="#FF8A33"/>
</svg>
