<svg width="297" height="52" viewBox="0 0 297 52" fill="none" xmlns="http://www.w3.org/2000/svg">
<path d="M12.9666 16.181V18.0592C11.6801 15.7722 9.27593 14.5829 7.76078 13.8339L7.40057 13.6567C6.75449 13.3308 6.0255 13.002 5.28793 12.6875C2.91515 11.5726 1.71446 10.2433 1.1713 8.15352C0.759632 6.56976 0.705334 4.46285 0.653876 2.60179C0.653876 1.97286 0.622409 1.37824 0.59668 0.826496C0.59668 0.649252 0.59668 0.423402 0.59668 0.211853C2.75978 0.965397 4.88117 1.83379 6.95176 2.81334L7.31765 2.9963C8.91285 3.78532 11.5829 5.10607 12.492 7.71041V7.73328C12.9008 8.74528 12.978 11.424 12.9723 12.4217H12.9495L12.8694 12.4503L12.8208 12.4703L12.7436 12.5046L12.6864 12.5332C12.6662 12.5425 12.647 12.554 12.6293 12.5675L12.5778 12.5961C12.5517 12.6112 12.5268 12.6284 12.5035 12.6475L12.4777 12.6647L12.4577 12.679C12.4365 12.6936 12.4164 12.7098 12.3977 12.7276L12.3663 12.7533C12.3411 12.7737 12.3172 12.7957 12.2948 12.819C12.2633 12.8505 12.229 12.8819 12.2005 12.9162L12.1147 13.022L12.0375 13.1335C12.0146 13.1678 11.9946 13.1992 11.9746 13.2364C11.8842 13.4042 11.8223 13.5858 11.7916 13.7739V13.8253C11.7916 13.8711 11.7916 13.9197 11.7916 13.9683C11.7916 14.0169 11.7916 14.0283 11.7916 14.0569C11.7916 14.0855 11.7916 14.1169 11.7916 14.1455C11.7916 14.1741 11.7916 14.2427 11.7916 14.2884V14.3399C11.7916 14.3771 11.7916 14.4171 11.8145 14.4543C11.8374 14.4914 11.8317 14.5257 11.8431 14.5629C11.8545 14.6001 11.8631 14.6201 11.8717 14.6486L11.9231 14.7744L11.9746 14.8745L12.0318 14.9688C12.0489 14.9974 12.0689 15.026 12.089 15.0546L12.1547 15.1404L12.209 15.2032L12.2662 15.2633L12.3148 15.309L12.3348 15.3262L12.3891 15.3719L12.4263 15.4034L12.4749 15.4405C12.5407 15.4868 12.6095 15.5288 12.6807 15.5663C12.696 15.5766 12.7123 15.5852 12.7293 15.592L12.8151 15.6321C12.8306 15.6395 12.8469 15.6452 12.8637 15.6492L12.9437 15.6807H12.9666V16.1552V16.181Z" fill="#F28444"/>
<path d="M11.6516 26.181C11.6504 26.5666 11.7793 26.9415 12.0174 27.2449C12.2554 27.5484 12.5888 27.7627 12.9637 27.8533V27.942V29.8345C11.6773 27.5475 9.27307 26.3582 7.75792 25.6092L7.39771 25.4291C6.82596 25.1432 6.21418 24.8573 5.57668 24.5715L5.43946 24.5086V24.4914C5.43946 24.4571 5.43946 24.4228 5.43946 24.3856C5.43946 24.3485 5.43946 24.3056 5.43946 24.2627C5.43946 23.8078 5.25876 23.3715 4.93708 23.0498C4.61541 22.7282 4.17911 22.5475 3.7242 22.5475H3.60412H3.4869L3.38971 22.5646H3.34682L3.25249 22.5903L3.15531 22.6246L3.05239 22.6675C2.98178 22.699 2.91386 22.7363 2.8494 22.779C2.03732 21.9843 1.46817 20.9749 1.20847 19.8688C0.796803 18.285 0.742504 16.1781 0.691046 14.3171C0.691046 13.6881 0.659579 13.0935 0.63385 12.5418C0.63385 12.3645 0.63385 12.1415 0.63385 11.9271C1.55723 12.2559 3.28107 12.8877 4.92201 13.5881L5.20788 13.7167C5.83395 14.0026 6.4429 14.2656 6.9832 14.5372L7.3491 14.7173C8.94429 15.5063 11.6144 16.8299 12.5235 19.4343V19.4571C12.9066 20.4034 12.998 22.8162 13.0038 23.9368V24.4686C12.6147 24.5527 12.267 24.7696 12.0203 25.082C11.7736 25.3945 11.6432 25.783 11.6516 26.181Z" fill="#F28444"/>
<path d="M12.9666 38.9711V39.0082H12.9294L12.9666 38.9711Z" fill="#F28444"/>
<path d="M12.9666 35.7521V38.0391L12.8894 38.0649L12.8265 38.0906L12.7608 38.1192C12.739 38.1279 12.7179 38.1385 12.6979 38.1506L12.635 38.1821L12.6035 38.2021L12.5749 38.2192L12.492 38.2736L12.3777 38.3622L12.3348 38.3993L12.2919 38.4394L12.2519 38.4822L12.2061 38.528L12.1633 38.5794V38.5966L12.1233 38.6481L12.0861 38.7024C10.2107 38.082 7.13469 37.0357 5.60239 36.3496C3.02949 35.2061 1.75736 33.8539 1.19418 31.6812C0.782521 30.0975 0.728187 27.9906 0.676729 26.1295C0.676729 25.5006 0.645297 24.9059 0.619568 24.3542C0.619568 24.1741 0.619568 23.9511 0.619568 23.7396C0.988349 23.8711 1.4772 24.0512 2.04895 24.2627C2.04895 24.7176 2.22966 25.1539 2.55133 25.4756C2.87301 25.7973 3.3093 25.978 3.76422 25.978H3.91857H3.97004H4.02434H4.10725L4.16159 25.9637L4.21875 25.9494L4.27877 25.9322C4.33309 25.9151 4.38743 25.8922 4.44174 25.8693L4.51894 25.8322C4.5465 25.8196 4.57321 25.8053 4.59895 25.7893L4.67042 25.7464C4.68316 25.7397 4.69474 25.731 4.70473 25.7207L4.73903 25.6978L4.77334 25.6749L4.85911 25.6006L4.922 25.5463L4.98206 25.4863C5.66816 25.7721 6.33709 26.0809 6.92886 26.3782L7.29479 26.5612C8.88999 27.3502 11.5601 28.6738 12.4692 31.2781V31.301C12.8694 32.2187 12.9609 34.6315 12.9666 35.7521Z" fill="#F28444"/>
<path d="M26.3856 27.9333C26.3856 28.1478 26.3856 28.3707 26.3856 28.548C26.3571 29.0997 26.3399 29.6915 26.3256 30.3233C26.277 32.1843 26.2227 34.2913 25.8082 35.875C25.2364 38.0505 23.9671 39.3999 21.3999 40.5434C19.5818 41.361 15.6024 42.676 14.0129 43.1906V41.3267L14.1272 41.2867L14.1644 41.2695C14.1969 41.2576 14.2284 41.2433 14.2587 41.2266L14.3216 41.1952L14.3702 41.1666L14.4388 41.1209L14.4989 41.0808C14.5283 41.0624 14.5561 41.0414 14.5818 41.018C14.5964 41.0081 14.6098 40.9966 14.6218 40.9836C14.6451 40.9652 14.6671 40.9452 14.6875 40.9236C14.7173 40.8972 14.745 40.8685 14.7705 40.8378C14.7899 40.8199 14.8072 40.7998 14.8219 40.7778C14.8462 40.7522 14.8682 40.7244 14.8876 40.6949L14.9391 40.6149L14.9677 40.5691C14.9677 40.552 14.9877 40.5377 14.9934 40.5234C15.0106 40.4919 15.0249 40.4605 15.0392 40.429L15.0592 40.3862C15.0592 40.3862 15.0592 40.3862 15.0592 40.3719C15.069 40.3534 15.0775 40.3343 15.0849 40.3147C15.106 40.2566 15.1241 40.1974 15.1392 40.1374C15.1392 40.1203 15.1392 40.1031 15.1392 40.0831L15.1564 39.9974C15.158 39.9831 15.158 39.9687 15.1564 39.9545C15.1576 39.9383 15.1576 39.9221 15.1564 39.9059C15.1592 39.8726 15.1592 39.8391 15.1564 39.8058C15.1564 39.7744 15.1564 39.7458 15.1564 39.7172C15.1564 39.6886 15.1564 39.6572 15.1564 39.6286C15.1578 39.601 15.1578 39.5733 15.1564 39.5457C15.1564 39.5457 15.1564 39.5228 15.1564 39.5085C15.158 39.4866 15.158 39.4647 15.1564 39.4428C15.1578 39.418 15.1578 39.3932 15.1564 39.3684C15.1564 39.3427 15.1564 39.3141 15.1364 39.2855C15.1163 39.2569 15.1049 39.174 15.0849 39.1169C15.0742 39.0945 15.0646 39.0716 15.0563 39.0483C15.0392 39.0082 15.022 38.9711 15.002 38.9339L14.942 38.8224C14.942 38.7995 14.9134 38.7767 14.8962 38.7538L14.8705 38.7166C14.848 38.6834 14.8232 38.6519 14.7962 38.6223L14.7075 38.528L14.6618 38.4822C14.648 38.4664 14.6327 38.4521 14.6161 38.4393C14.5818 38.4107 14.5503 38.3822 14.5132 38.3564C14.4885 38.336 14.4627 38.3169 14.436 38.2993L14.3931 38.2707L14.3445 38.2421L14.2959 38.2135L14.2473 38.1878L14.1987 38.1649L14.153 38.1449L14.0586 38.1077C14.1244 37.1043 14.2502 36.0494 14.4731 35.4977V35.4748C15.3822 32.8704 18.0523 31.5497 19.6475 30.7607L20.0134 30.5777C22.0885 29.5826 24.2157 28.6999 26.3856 27.9333Z" fill="#F28444"/>
<path d="M26.3828 16.1581C26.3828 16.3725 26.3828 16.5955 26.3828 16.7727C26.3571 17.3273 26.3399 17.9162 26.3256 18.548C26.2741 20.4091 26.2198 22.5188 25.8082 24.0997C25.2364 26.2753 23.9642 27.6275 21.3999 28.7681C20.7624 29.054 20.1392 29.3399 19.5789 29.6086L19.2187 29.7887C17.7035 30.5377 15.2993 31.7298 14.0129 34.014V28.1249C14.0129 28.0191 14.0129 27.9076 14.0129 27.7818C14.3168 27.6651 14.5811 27.4643 14.7751 27.2028C14.9691 26.9414 15.0847 26.6302 15.1084 26.3055C15.1321 25.9808 15.0629 25.6561 14.9089 25.3693C14.7549 25.0825 14.5225 24.8454 14.2387 24.6858C14.2859 24.3425 14.3693 24.0052 14.4874 23.6795V23.6566C15.3965 21.0523 18.0666 19.7315 19.6618 18.9397L20.0277 18.7596C20.5681 18.488 21.1712 18.2107 21.8002 17.942L21.9889 17.8562C22.0262 17.8935 22.0663 17.9279 22.1089 17.9591L22.1575 17.9963L22.2747 18.0735L22.3405 18.1106C22.4266 18.1572 22.5165 18.1964 22.6092 18.2278L22.6721 18.2478C22.7749 18.2778 22.8801 18.2989 22.9866 18.3107H23.0523H23.1609H23.2667H23.3353C23.4519 18.2991 23.5669 18.2751 23.6784 18.2393L23.7527 18.2135C23.8844 18.1675 24.0094 18.104 24.1243 18.0249L24.1901 17.9763L24.3188 17.8705C24.3597 17.8353 24.3979 17.7971 24.4331 17.7561C24.4709 17.7154 24.5062 17.6724 24.5389 17.6275C24.5567 17.6058 24.5729 17.5829 24.5875 17.5589C24.7135 17.3743 24.801 17.1663 24.8448 16.9471C24.8518 16.9207 24.8576 16.894 24.8619 16.8671C24.8619 16.8099 24.8619 16.7556 24.8791 16.6984C25.4823 16.484 26.0026 16.2867 26.3828 16.1581Z" fill="#F28444"/>
<path d="M26.3829 4.39996C26.3829 4.61151 26.3829 4.83449 26.3829 5.0146C26.3571 5.56634 26.34 6.1581 26.3257 6.78989C26.2742 8.65095 26.2199 10.7579 25.8083 12.3416C25.5522 13.4317 24.9956 14.428 24.2016 15.2176L24.133 15.1718L24.0873 15.1432H24.0673L23.9986 15.1032L23.8643 15.0403L23.7414 14.9946L23.6842 14.9746C23.6156 14.9549 23.5459 14.9397 23.4755 14.9288C23.4575 14.9261 23.4392 14.9261 23.4212 14.9288H23.3697H23.2839H23.1953C22.7404 14.9288 22.3041 15.1095 21.9824 15.4312C21.6608 15.7529 21.4801 16.1892 21.4801 16.6441C21.4797 16.7612 21.4912 16.878 21.5144 16.9928C20.8426 17.2787 20.1851 17.5789 19.599 17.8762L19.2388 18.0534C17.7237 18.8053 15.3194 19.9946 14.033 22.2787V16.3639C14.033 16.1752 14.033 15.9494 14.033 15.7035L14.1359 15.6664L14.1702 15.6521L14.2788 15.6006C14.316 15.5835 14.3531 15.5606 14.3874 15.5406C14.4273 15.5175 14.4655 15.4917 14.5018 15.4634L14.5962 15.3919L14.6362 15.3605C14.6594 15.341 14.6814 15.32 14.7019 15.2976L14.7191 15.2833L14.7963 15.1975C14.8249 15.1661 14.8506 15.1346 14.8763 15.1003C14.9034 15.0648 14.9282 15.0275 14.9506 14.9888C14.9647 14.9715 14.9763 14.9523 14.985 14.9317L15.0193 14.8716C15.0299 14.8532 15.0395 14.8341 15.0478 14.8145L15.0793 14.7458C15.0881 14.7263 15.0958 14.7063 15.1021 14.6858C15.1351 14.6016 15.16 14.5145 15.1765 14.4257C15.1781 14.4028 15.1781 14.3799 15.1765 14.3571C15.1781 14.3438 15.1781 14.3303 15.1765 14.317C15.1765 14.317 15.1765 14.317 15.1765 14.3027C15.1765 14.2884 15.1765 14.2713 15.1765 14.2541C15.178 14.2246 15.178 14.195 15.1765 14.1655C15.1765 14.1369 15.1765 14.1055 15.1765 14.0769C15.1765 14.0483 15.1765 14.014 15.1765 13.9826C15.1779 13.9626 15.1779 13.9425 15.1765 13.9225C15.178 13.9092 15.178 13.8958 15.1765 13.8825C15.1781 13.8692 15.1781 13.8558 15.1765 13.8425V13.8282L15.1593 13.731V13.7138C15.1593 13.6795 15.1422 13.6424 15.1308 13.6109L15.0964 13.5137C15.0846 13.4775 15.0703 13.4422 15.0536 13.4079C15.0416 13.3764 15.0273 13.3458 15.0107 13.3165L14.9506 13.2078C14.9278 13.1735 14.9049 13.1364 14.8792 13.1021L14.8363 13.0449L14.8048 13.0077C14.7854 12.9826 14.7644 12.9587 14.742 12.9362C14.7177 12.9082 14.6919 12.8815 14.6648 12.8562L14.5962 12.7933L14.5704 12.7733L14.4904 12.7104L14.4161 12.6618C14.3802 12.6378 14.3429 12.6158 14.3046 12.5961C14.3463 12.3807 14.4065 12.1693 14.4847 11.9643V11.9414C15.3938 9.33991 18.0638 8.0163 19.659 7.22728L20.025 7.04718C22.095 6.05079 24.2174 5.1671 26.3829 4.39996Z" fill="#F28444"/>
<path d="M14.3674 14.0654C14.3666 14.2995 14.2733 14.5237 14.1078 14.6892C13.9423 14.8547 13.7181 14.948 13.484 14.9488C13.2978 14.9502 13.1161 14.891 12.9666 14.7801C12.8532 14.6986 12.7609 14.5912 12.6972 14.467C12.6335 14.3427 12.6003 14.2051 12.6003 14.0654C12.6003 13.9258 12.6335 13.7882 12.6972 13.6639C12.7609 13.5397 12.8532 13.4323 12.9666 13.3508C13.0986 13.2566 13.254 13.2004 13.4157 13.1885C13.5775 13.1765 13.7394 13.2091 13.8839 13.2828C14.0284 13.3566 14.1499 13.4685 14.2351 13.6065C14.3204 13.7445 14.3661 13.9032 14.3674 14.0654Z" fill="#F28444"/>
<path d="M24.0501 16.6069C24.0505 16.7744 24.0018 16.9384 23.91 17.0786C23.831 17.2042 23.7213 17.3076 23.5912 17.3791C23.4612 17.4506 23.3152 17.4879 23.1668 17.4874C23.0936 17.4875 23.0206 17.4788 22.9495 17.4617C22.7588 17.4133 22.5898 17.3026 22.4691 17.1473C22.3484 16.9919 22.2831 16.8007 22.2834 16.604C22.2818 16.5917 22.2818 16.5792 22.2834 16.5669C22.2893 16.3373 22.3847 16.1192 22.5492 15.959C22.7137 15.7988 22.9343 15.7092 23.1639 15.7092C23.2829 15.7088 23.4007 15.7331 23.5098 15.7807C23.6721 15.8487 23.8103 15.9637 23.9066 16.111C24.0029 16.2582 24.0529 16.4309 24.0501 16.6069Z" fill="#F28444"/>
<path d="M14.2588 26.1809C14.2583 26.3921 14.1799 26.5957 14.0386 26.7527C13.9561 26.8476 13.8543 26.9238 13.7399 26.9761C13.6255 27.0284 13.5012 27.0555 13.3754 27.0557C13.2327 27.056 13.0922 27.0206 12.9666 26.9528C12.8232 26.879 12.7028 26.7672 12.6188 26.6295C12.5348 26.4918 12.4904 26.3336 12.4904 26.1724C12.4904 26.0111 12.5348 25.8529 12.6188 25.7152C12.7028 25.5776 12.8232 25.4657 12.9666 25.3919C13.0922 25.3241 13.2327 25.2888 13.3754 25.289C13.5209 25.2889 13.6642 25.3249 13.7924 25.3938C13.9206 25.4626 14.0298 25.5622 14.1101 25.6835C14.209 25.8304 14.2609 26.0039 14.2588 26.1809Z" fill="#F28444"/>
<path d="M3.01525 22.7161C2.94463 22.7476 2.87672 22.7849 2.81226 22.8276C2.87637 22.7843 2.94433 22.747 3.01525 22.7161Z" fill="#F28444"/>
<path d="M4.619 24.2913C4.61904 24.4622 4.56933 24.6295 4.47593 24.7726C4.38252 24.9158 4.24947 25.0287 4.093 25.0975C3.98102 25.1492 3.859 25.1756 3.73565 25.1747C3.56223 25.1742 3.39276 25.1228 3.24839 25.0267C3.10401 24.9306 2.99109 24.7942 2.92374 24.6344C2.87754 24.5259 2.85419 24.4092 2.85513 24.2913C2.85466 24.095 2.9196 23.9041 3.0397 23.7488C3.15981 23.5935 3.32825 23.4826 3.51838 23.4337C3.58938 23.4154 3.66234 23.4058 3.73565 23.4051C3.93863 23.4071 4.13471 23.479 4.2909 23.6087C4.4471 23.7383 4.55388 23.9178 4.59329 24.1169C4.60783 24.174 4.61644 24.2325 4.619 24.2913Z" fill="#F28444"/>
<path d="M14.3673 39.6858C14.3673 39.8257 14.3338 39.9635 14.2696 40.0879C14.2055 40.2122 14.1125 40.3194 13.9986 40.4005C13.8494 40.5098 13.6689 40.5679 13.484 40.5663C13.3016 40.5659 13.1238 40.5091 12.975 40.4036C12.8262 40.2982 12.7137 40.1492 12.6529 39.9772C12.5921 39.8053 12.5861 39.6187 12.6356 39.4432C12.6851 39.2676 12.7877 39.1117 12.9294 38.9968H12.9665V38.9596C13.0983 38.8644 13.2539 38.8074 13.416 38.7949C13.5782 38.7823 13.7406 38.8148 13.8855 38.8887C14.0303 38.9626 14.1519 39.0751 14.237 39.2137C14.322 39.3523 14.3671 39.5117 14.3673 39.6743V39.6858Z" fill="#F28444"/>
<path d="M12.9666 38.9711V39.0082H12.9294L12.9666 38.9711Z" fill="#F28444"/>
<path d="M57.8472 29.7288C57.8728 31.6248 57.5656 33.5106 56.9395 35.3004C56.3832 36.8918 55.4916 38.3451 54.3249 39.5619C53.1393 40.7661 51.7028 41.6941 50.1177 42.2798C48.3025 42.9436 46.3807 43.2678 44.4482 43.2365C43.5677 43.2365 42.6436 43.193 41.6869 43.1115C40.7302 43.0299 39.779 42.9266 38.8495 42.7962C37.92 42.6657 37.0285 42.5081 36.186 42.3287C35.3435 42.1493 34.5879 41.9645 33.9356 41.7851V5.81718L41.2194 4.64307V17.455C42.0381 17.0951 42.8902 16.8166 43.7633 16.6233C44.6956 16.4221 45.6471 16.3236 46.6008 16.3298C48.2629 16.2967 49.9127 16.6211 51.4385 17.281C52.8114 17.8951 54.0187 18.8267 54.9609 19.9989C55.9564 21.252 56.6952 22.6891 57.1351 24.2279C57.6365 26.0176 57.8763 27.8704 57.8472 29.7288ZM50.4112 29.5331C50.4112 24.8222 48.6845 22.4667 45.231 22.4667C44.4785 22.4669 43.7292 22.5656 43.0023 22.7602C42.3743 22.9131 41.7731 23.1606 41.2194 23.494V36.768C41.5782 36.8332 42.0348 36.893 42.5892 36.9419C43.1437 36.9909 43.747 37.0126 44.3993 37.0126C46.3888 37.0126 47.8872 36.3277 48.8946 34.9579C49.902 33.5881 50.4076 31.7799 50.4112 29.5331Z" fill="#1A2D78"/>
<path d="M74.176 16.1885C75.9976 16.141 77.8149 16.3888 79.5573 16.9223C80.8609 17.3308 82.0443 18.0531 83.0035 19.0259C83.8813 19.9652 84.5109 21.1086 84.8354 22.3525C85.211 23.7711 85.3938 25.2338 85.3789 26.7011V41.8558C84.3353 42.0841 82.8894 42.3505 81.0304 42.6603C78.7963 42.9983 76.5386 43.1546 74.2792 43.1278C72.7604 43.1421 71.2443 42.9945 69.7567 42.6875C68.5087 42.4374 67.3215 41.9463 66.2616 41.2416C65.2917 40.5864 64.5147 39.6837 64.0112 38.627C63.4498 37.3851 63.1766 36.0323 63.2122 34.6698C63.1729 33.3435 63.4862 32.0306 64.1199 30.8648C64.7007 29.8408 65.5333 28.982 66.5388 28.3699C67.6114 27.7271 68.7862 27.273 70.0122 27.0272C71.3454 26.7457 72.7046 26.6054 74.0673 26.6087C74.9096 26.6043 75.7516 26.646 76.5894 26.7337C77.1912 26.7906 77.7875 26.896 78.3723 27.049V26.3532C78.3975 25.8054 78.3107 25.2583 78.1172 24.7452C77.9238 24.2321 77.6277 23.7638 77.2471 23.369C76.497 22.6189 75.1924 22.2438 73.3334 22.2438C72.1072 22.2437 70.8826 22.3345 69.6698 22.5156C68.6078 22.6579 67.5626 22.9055 66.5497 23.2549L65.6202 17.3898C66.0442 17.2593 66.5714 17.118 67.2074 16.9712C67.8434 16.8244 68.5392 16.6994 69.2893 16.5798C70.0394 16.4603 70.8276 16.3733 71.6592 16.2863C72.4909 16.1993 73.328 16.1885 74.176 16.1885ZM74.763 37.5073C75.4878 37.5073 76.1727 37.4909 76.8177 37.4583C77.3418 37.4382 77.8645 37.3892 78.3832 37.3116V31.7835C78.0897 31.7182 77.6494 31.653 77.0623 31.5878C76.521 31.525 75.9766 31.4923 75.4316 31.4899C74.7864 31.4866 74.1418 31.5265 73.5019 31.6095C72.949 31.6767 72.4109 31.8347 71.9093 32.077C71.4704 32.2842 71.095 32.6052 70.8221 33.0065C70.5485 33.4439 70.4122 33.9531 70.4308 34.4687C70.4308 35.6102 70.8131 36.402 71.5777 36.8441C72.5643 37.3364 73.6621 37.5631 74.763 37.5018V37.5073Z" fill="#1A2D78"/>
<path d="M100.718 26.1032C101.443 25.3241 102.184 24.5141 102.942 23.6734C103.708 22.8309 104.447 21.9992 105.165 21.1676C105.882 20.3359 106.556 19.5369 107.192 18.8139C107.828 18.091 108.372 17.4169 108.823 16.8679H117.488C115.759 18.8502 114.072 20.7454 112.427 22.5537C110.782 24.3619 108.984 26.2264 107.035 28.147C108.113 29.1326 109.127 30.1875 110.068 31.3051C111.112 32.53 112.123 33.7983 113.101 35.1101C114.079 36.4219 114.985 37.7283 115.819 39.0292C116.634 40.3338 117.319 41.5297 117.874 42.6059H109.465C108.921 41.7525 108.377 40.8176 107.687 39.7848C106.997 38.752 106.312 37.7301 105.562 36.6973C104.812 35.6646 104.023 34.6807 103.192 33.7349C102.442 32.8555 101.614 32.0459 100.718 31.316V42.5896H93.4347V5.81718L100.718 4.64307V26.1032Z" fill="#1A2D78"/>
<path d="M120.238 29.9245C120.198 27.8818 120.556 25.8508 121.293 23.9452C121.918 22.3491 122.857 20.8945 124.054 19.6673C125.172 18.5403 126.512 17.6575 127.989 17.0745C129.443 16.4912 130.994 16.1905 132.561 16.1885C136.214 16.1885 139.1 17.3046 141.22 19.5369C143.34 21.7691 144.398 25.0541 144.394 29.3918C144.394 29.8158 144.394 30.2778 144.345 30.7833C144.296 31.2888 144.28 31.74 144.247 32.1314H127.723C127.788 32.8444 128.01 33.5343 128.374 34.151C128.737 34.7676 129.234 35.2958 129.827 35.6972C131.059 36.5778 132.72 37.018 134.811 37.018C136.131 37.0204 137.449 36.8985 138.747 36.6539C139.829 36.4723 140.888 36.1715 141.905 35.757L142.878 41.6764C142.375 41.9144 141.853 42.1107 141.318 42.2635C140.603 42.4731 139.877 42.6436 139.143 42.7744C138.344 42.9212 137.513 43.0462 136.578 43.1441C135.675 43.241 134.768 43.29 133.86 43.2908C131.8 43.3355 129.75 42.9868 127.821 42.2635C126.205 41.6487 124.746 40.6834 123.548 39.4369C122.412 38.2318 121.558 36.7891 121.048 35.2134C120.496 33.5054 120.222 31.7195 120.238 29.9245ZM137.355 27.136C137.322 26.5218 137.215 25.9139 137.034 25.3259C136.863 24.7555 136.582 24.2238 136.208 23.7604C135.817 23.2929 135.334 22.91 134.789 22.6352C134.123 22.3259 133.393 22.177 132.659 22.2004C131.937 22.1802 131.22 22.3213 130.56 22.6135C130 22.8679 129.5 23.2384 129.093 23.7006C128.693 24.1702 128.386 24.7104 128.185 25.2933C127.976 25.8886 127.821 26.5017 127.723 27.1251L137.355 27.136Z" fill="#1A2D78"/>
<path d="M166.985 23.3201C166.333 23.157 165.572 22.9885 164.691 22.8092C163.757 22.6236 162.806 22.5326 161.854 22.5374C161.308 22.5455 160.763 22.5872 160.223 22.6624C159.737 22.7151 159.255 22.8041 158.783 22.9287V42.5896H151.488V18.2377C153.003 17.7203 154.545 17.2866 156.108 16.9386C158.06 16.5161 160.053 16.312 162.049 16.3298C162.441 16.3298 162.914 16.3298 163.468 16.4005C164.023 16.4711 164.555 16.5201 165.131 16.5962C165.708 16.6723 166.219 16.7755 166.789 16.8897C167.274 16.9866 167.749 17.1266 168.208 17.3082L166.985 23.3201Z" fill="#1A2D78"/>
<path d="M198.017 16.8679C196.546 21.8253 195.01 26.471 193.408 30.805C191.806 35.1391 190.049 39.3445 188.135 43.4213C187.538 44.7218 186.844 45.9755 186.059 47.1719C185.435 48.1255 184.675 48.9826 183.803 49.7158C182.988 50.3841 182.047 50.883 181.036 51.1834C179.866 51.5116 178.653 51.6672 177.438 51.6455C176.377 51.6549 175.318 51.5491 174.28 51.3302C173.475 51.1587 172.688 50.9168 171.926 50.6073L173.198 44.7911C173.85 45.0279 174.521 45.2097 175.204 45.3346C175.818 45.4347 176.44 45.4838 177.063 45.4814C177.611 45.5178 178.161 45.4426 178.68 45.2604C179.198 45.0783 179.674 44.7928 180.08 44.4214C180.868 43.584 181.476 42.5944 181.868 41.5133C180.205 38.2519 178.541 34.5919 176.878 30.5332C175.072 26.0644 173.504 21.5029 172.182 16.8679H179.906C180.232 18.1399 180.618 19.5169 181.063 20.999C181.509 22.4812 181.975 23.9814 182.46 25.4998C182.95 27.0145 183.45 28.4894 183.961 29.9245C184.472 31.3595 184.954 32.664 185.407 33.8382C185.838 32.664 186.28 31.3595 186.733 29.9245C187.195 28.4894 187.641 27.0164 188.086 25.4998C188.532 23.9832 188.951 22.483 189.358 20.999C189.766 19.5151 190.136 18.1399 190.445 16.8679H198.017Z" fill="#1A2D78"/>
<path d="M207.66 16.791H217.079V20.5262H207.66V31.9996C207.638 33.0449 207.737 34.0893 207.953 35.1123C208.086 35.8076 208.38 36.4621 208.812 37.0235C209.184 37.4809 209.682 37.8204 210.244 38.0008C210.894 38.2041 211.573 38.3008 212.254 38.2872C213.348 38.3258 214.439 38.172 215.479 37.8328C216.295 37.534 216.861 37.3161 217.179 37.2102L218.038 40.8894C217.28 41.2279 216.498 41.5068 215.697 41.7236C214.452 42.0776 213.162 42.2474 211.868 42.2279C210.447 42.281 209.029 42.0699 207.685 41.6053C206.64 41.2153 205.723 40.5455 205.033 39.6693C204.329 38.7313 203.848 37.6456 203.626 36.4943C203.336 35.0602 203.198 33.5995 203.215 32.1365V9.85593L207.66 9.09644V16.791Z" fill="#F28444"/>
<path d="M222.483 29.2666C222.441 27.3042 222.767 25.3514 223.441 23.5082C224.002 21.9882 224.864 20.5971 225.975 19.4181C226.997 18.3543 228.238 17.524 229.611 16.984C230.947 16.4478 232.373 16.171 233.813 16.1685C237.162 16.1685 239.729 17.206 241.514 19.2811C243.298 21.3563 244.19 24.5354 244.19 28.8184V29.609C244.191 29.8899 244.174 30.1706 244.141 30.4495H227.12C227.313 33.033 228.061 34.9878 229.368 36.3324C230.675 37.6771 232.717 38.337 235.487 38.337C236.814 38.3612 238.14 38.2254 239.434 37.9324C240.261 37.7397 241.069 37.4752 241.85 37.1417L242.472 40.877C241.561 41.2853 240.607 41.5901 239.627 41.7859C238.111 42.1216 236.561 42.2824 235.008 42.2652C233.094 42.3071 231.19 41.9729 229.405 41.2816C227.917 40.6911 226.583 39.7667 225.508 38.5798C224.468 37.396 223.694 36.0036 223.236 34.496C222.72 32.8014 222.466 31.0379 222.483 29.2666ZM239.553 26.8325C239.663 25.0455 239.129 23.2781 238.046 21.8522C237.536 21.2159 236.882 20.7089 236.139 20.3725C235.396 20.0361 234.584 19.8797 233.769 19.9161C232.832 19.9042 231.905 20.1177 231.067 20.5387C230.307 20.9179 229.631 21.4474 229.081 22.095C228.537 22.7465 228.116 23.491 227.836 24.2926C227.526 25.1084 227.317 25.9594 227.214 26.8263L239.553 26.8325Z" fill="#F28444"/>
<path d="M263.028 42.2279C261.22 42.2667 259.423 41.9407 257.743 41.2692C256.286 40.6724 254.98 39.7579 253.921 38.5923C252.863 37.4129 252.071 36.0203 251.599 34.5084C251.071 32.812 250.812 31.0432 250.833 29.2667C250.813 27.4803 251.097 25.7035 251.673 24.0125C252.186 22.4921 252.989 21.086 254.039 19.8726C255.071 18.7041 256.346 17.7756 257.774 17.1521C259.337 16.481 261.023 16.1459 262.723 16.1685C263.844 16.1711 264.962 16.2669 266.066 16.4549C267.164 16.643 268.239 16.9477 269.273 17.3638L268.308 21.1426C267.565 20.8012 266.786 20.5444 265.986 20.3768C265.067 20.1808 264.13 20.0847 263.19 20.0905C260.7 20.0905 258.801 20.8686 257.475 22.4312C256.149 23.9938 255.49 26.2723 255.49 29.2791C255.479 30.5222 255.632 31.7613 255.944 32.9645C256.215 34.0122 256.705 34.9904 257.382 35.8344C258.045 36.6534 258.9 37.2951 259.872 37.7021C261.064 38.1557 262.333 38.3673 263.607 38.3246C264.685 38.3353 265.761 38.2225 266.814 37.9884C267.585 37.827 268.338 37.5871 269.061 37.2725L269.683 41.0077C269.34 41.207 268.971 41.3598 268.588 41.4622C268.053 41.6196 267.511 41.7484 266.963 41.8482C266.34 41.954 265.718 42.0536 265.027 42.1345C264.363 42.2016 263.696 42.2328 263.028 42.2279Z" fill="#F28444"/>
<path d="M276.077 41.6552V5.33012L280.528 4.56439V17.2828C281.387 16.9555 282.275 16.7075 283.18 16.542C284.102 16.3695 285.037 16.282 285.975 16.2805C287.656 16.2257 289.331 16.5094 290.899 17.1147C292.12 17.6159 293.192 18.4218 294.012 19.4555C294.823 20.522 295.386 21.7553 295.662 23.0662C295.993 24.5896 296.154 26.1451 296.141 27.7041V41.6676H291.715V28.6504C291.732 27.3363 291.628 26.0234 291.404 24.7284C291.256 23.7885 290.905 22.8921 290.377 22.1013C289.9 21.4335 289.234 20.9239 288.465 20.6383C287.51 20.3124 286.505 20.1586 285.496 20.1839C285 20.1843 284.505 20.2175 284.014 20.2835C283.504 20.3457 283.018 20.4204 282.557 20.4951C282.097 20.5698 281.68 20.6632 281.312 20.7628C281.046 20.826 280.784 20.905 280.528 20.9994V41.6552H276.077Z" fill="#F28444"/>
</svg>
