<svg width="545" height="95" viewBox="0 0 545 95" fill="none" xmlns="http://www.w3.org/2000/svg">
<path d="M22.7568 29.4893V32.9447C20.3902 28.7372 15.9671 26.5494 13.1797 25.1715L12.5171 24.8454C11.3285 24.2458 9.98735 23.641 8.63046 23.0625C4.26528 21.0114 2.05638 18.5658 1.05712 14.7213C0.299783 11.8077 0.19989 7.93161 0.105224 4.50783C0.105224 3.3508 0.0473333 2.25687 0 1.24184C0 0.915763 0 0.500269 0 0.111084C3.97944 1.49737 7.88215 3.09495 11.6914 4.89701L12.3645 5.23361C15.2992 6.68517 20.2113 9.11494 21.8838 13.9061V13.9482C22.6358 15.81 22.7779 20.7379 22.7674 22.5734H22.7253L22.578 22.626L22.4886 22.6628L22.3466 22.7259L22.2414 22.7785C22.2042 22.7956 22.1689 22.8168 22.1363 22.8416L22.0416 22.8942C21.9936 22.9221 21.9478 22.9537 21.9048 22.9889L21.8575 23.0204L21.8207 23.0467C21.7816 23.0736 21.7447 23.1035 21.7102 23.1361L21.6524 23.1835C21.6061 23.221 21.5622 23.2614 21.5209 23.3044C21.4631 23.3623 21.4 23.4201 21.3474 23.4832L21.1896 23.6778L21.0476 23.8829C21.0055 23.9461 20.9687 24.0039 20.9319 24.0723C20.7655 24.3809 20.6518 24.715 20.5953 25.061V25.1557C20.5953 25.2398 20.5953 25.3292 20.5953 25.4187C20.5953 25.5081 20.5953 25.5291 20.5953 25.5817C20.5953 25.6343 20.5953 25.6921 20.5953 25.7447C20.5953 25.7973 20.5953 25.9235 20.5953 26.0077V26.1024C20.5953 26.1707 20.5953 26.2443 20.6373 26.3127C20.6794 26.3811 20.6689 26.4442 20.69 26.5126C20.711 26.5809 20.7268 26.6178 20.7426 26.6703L20.8372 26.9018L20.9319 27.0858L21.037 27.2594C21.0686 27.312 21.1054 27.3646 21.1423 27.4172L21.2632 27.5749L21.3631 27.6906L21.4683 27.8011L21.5577 27.8852L21.5945 27.9168L21.6944 28.0009L21.7628 28.0588L21.8522 28.1272C21.9734 28.2123 22.0999 28.2896 22.2309 28.3586C22.2589 28.3775 22.2889 28.3933 22.3203 28.4059L22.4781 28.4795C22.5067 28.4932 22.5367 28.5038 22.5675 28.5111L22.7148 28.5689H22.7568V29.442V29.4893Z" fill="white"/>
<path d="M20.3376 47.8862C20.3354 48.5958 20.5725 49.2854 21.0105 49.8436C21.4485 50.4018 22.0619 50.7962 22.7515 50.9629V51.1259V54.6076C20.3849 50.4002 15.9619 48.2123 13.1745 46.8344L12.5118 46.5031C11.4599 45.9771 10.3345 45.4512 9.16164 44.9253L8.90921 44.8096V44.778C8.90921 44.7149 8.90921 44.6518 8.90921 44.5834C8.90921 44.515 8.90921 44.4362 8.90921 44.3573C8.90921 43.5204 8.57676 42.7177 7.98498 42.126C7.3932 41.5342 6.59055 41.2017 5.75365 41.2017H5.53274H5.31709L5.13829 41.2333H5.05939L4.88586 41.2806L4.70706 41.3437L4.51774 41.4226C4.38782 41.4806 4.26288 41.5492 4.14429 41.6277C2.6503 40.1657 1.60325 38.3088 1.12548 36.2738C0.368142 33.3602 0.26825 29.4841 0.173583 26.0603C0.173583 24.9033 0.115693 23.8093 0.0683594 22.7943C0.0683594 22.4682 0.0683594 22.058 0.0683594 21.6636C1.7671 22.2684 4.93843 23.4307 7.95725 24.7192L8.48317 24.9559C9.63495 25.4818 10.7552 25.9657 11.7492 26.4653L12.4224 26.7966C15.357 28.2482 20.2692 30.6832 21.9417 35.4744V35.5165C22.6464 37.2573 22.8147 41.6961 22.8252 43.7577V44.7359C22.1094 44.8908 21.4698 45.2898 21.0159 45.8646C20.562 46.4393 20.3222 47.154 20.3376 47.8862Z" fill="white"/>
<path d="M22.7569 71.4161V71.4845H22.6885L22.7569 71.4161Z" fill="white"/>
<path d="M22.7568 65.4942V69.7016L22.6148 69.7489L22.4991 69.7962L22.3782 69.8488C22.3381 69.8649 22.2994 69.8843 22.2625 69.9067L22.1467 69.9645L22.0889 70.0014L22.0363 70.0329L21.8838 70.1328L21.6735 70.2959L21.5945 70.3643L21.5156 70.4379L21.442 70.5168L21.3578 70.6009L21.279 70.6956V70.7271L21.2054 70.8218L21.137 70.9217C17.6869 69.7805 12.0279 67.8556 9.20897 66.5934C4.47563 64.4897 2.1353 62.002 1.09923 58.005C0.341897 55.0914 0.24194 51.2153 0.147274 47.7915C0.147274 46.6345 0.0894476 45.5405 0.0421143 44.5255C0.0421143 44.1942 0.0421143 43.784 0.0421143 43.3948C0.720559 43.6367 1.61989 43.968 2.67174 44.3572C2.67174 45.1941 3.00418 45.9967 3.59597 46.5885C4.18775 47.1803 4.99039 47.5128 5.8273 47.5128H6.11126H6.20595H6.30585H6.45838L6.55834 47.4865L6.6635 47.4602L6.77393 47.4286C6.87385 47.3971 6.97382 47.355 7.07374 47.3129L7.21575 47.2446C7.26647 47.2214 7.3156 47.1951 7.36296 47.1657L7.49444 47.0868C7.51788 47.0745 7.53918 47.0585 7.55755 47.0394L7.62066 46.9974L7.68377 46.9553L7.84157 46.8185L7.95726 46.7186L8.06775 46.6082C9.32997 47.1341 10.5606 47.7021 11.6493 48.2491L12.3225 48.5857C15.2571 50.0372 20.1693 52.4723 21.8417 57.2634V57.3055C22.578 58.9937 22.7463 63.4325 22.7568 65.4942Z" fill="white"/>
<path d="M47.4439 51.1101C47.4439 51.5046 47.4439 51.9148 47.4439 52.2409C47.3913 53.2559 47.3597 54.3446 47.3334 55.5069C47.244 58.9306 47.1441 62.8067 46.3815 65.7203C45.3296 69.7226 42.9945 72.205 38.2717 74.3087C34.9268 75.8129 27.6059 78.2321 24.6818 79.1788V75.7497L24.8921 75.6761L24.9605 75.6446C25.0203 75.6227 25.0783 75.5963 25.1341 75.5657L25.2497 75.5078L25.3392 75.4552L25.4654 75.3711L25.5758 75.2975C25.6301 75.2636 25.6811 75.2249 25.7284 75.1817C25.7552 75.1636 25.7799 75.1424 25.802 75.1186C25.8449 75.0847 25.8853 75.0478 25.9229 75.0082C25.9777 74.9595 26.0287 74.9068 26.0755 74.8504C26.1113 74.8174 26.143 74.7804 26.1701 74.74C26.2149 74.6928 26.2553 74.6418 26.2911 74.5874L26.3858 74.4402L26.4383 74.356C26.4383 74.3245 26.4751 74.2982 26.4857 74.2719C26.5172 74.214 26.5435 74.1562 26.5698 74.0983L26.6067 74.0194C26.6067 74.0194 26.6067 74.0194 26.6067 73.9932C26.6246 73.9591 26.6404 73.924 26.654 73.888C26.6928 73.781 26.7261 73.6722 26.7539 73.5619C26.7539 73.5303 26.7539 73.4988 26.7539 73.462L26.7855 73.3042C26.7884 73.278 26.7884 73.2515 26.7855 73.2253C26.7878 73.1955 26.7878 73.1656 26.7855 73.1359C26.7907 73.0746 26.7907 73.0131 26.7855 72.9518C26.7855 72.894 26.7855 72.8414 26.7855 72.7888C26.7855 72.7362 26.7855 72.6783 26.7855 72.6257C26.7881 72.5749 26.7881 72.524 26.7855 72.4732C26.7855 72.4732 26.7855 72.4312 26.7855 72.4049C26.7884 72.3646 26.7884 72.3242 26.7855 72.2839C26.788 72.2383 26.788 72.1927 26.7855 72.1471C26.7855 72.0998 26.7854 72.0472 26.7486 71.9946C26.7118 71.942 26.6908 71.7895 26.654 71.6843C26.6342 71.6432 26.6167 71.6011 26.6014 71.5581C26.5698 71.4845 26.5383 71.4161 26.5014 71.3477L26.391 71.1426C26.391 71.1005 26.3384 71.0585 26.3069 71.0164L26.2595 70.948C26.2182 70.887 26.1725 70.829 26.1228 70.7745L25.9597 70.6009L25.8756 70.5168C25.8503 70.4878 25.8221 70.4613 25.7915 70.4379C25.7283 70.3853 25.6705 70.3327 25.6021 70.2854C25.5567 70.2478 25.5093 70.2127 25.4601 70.1802L25.3812 70.1276L25.2919 70.075L25.2024 70.0224L25.113 69.9751L25.0236 69.933L24.9395 69.8962L24.7659 69.8278C24.8869 67.9818 25.1183 66.0412 25.5285 65.0261V64.984C27.2009 60.1929 32.1131 57.7631 35.0477 56.3115L35.7209 55.9749C39.5385 54.1442 43.4518 52.5202 47.4439 51.1101Z" fill="white"/>
<path d="M47.4386 29.4473C47.4386 29.8417 47.4386 30.2519 47.4386 30.578C47.3913 31.5983 47.3597 32.6817 47.3334 33.844C47.2387 37.2678 47.1388 41.1491 46.3815 44.0575C45.3296 48.0598 42.9892 50.5474 38.2717 52.6459C37.0989 53.1718 35.9523 53.6977 34.9215 54.1921L34.2589 54.5234C31.4714 55.9014 27.0484 58.0945 24.6818 62.2966V51.4625C24.6818 51.2679 24.6818 51.0628 24.6818 50.8314C25.2408 50.6166 25.7272 50.2472 26.0841 49.7662C26.441 49.2853 26.6536 48.7127 26.6971 48.1154C26.7407 47.5181 26.6134 46.9207 26.3301 46.3931C26.0468 45.8654 25.6192 45.4293 25.0973 45.1356C25.184 44.5041 25.3374 43.8836 25.5548 43.2844V43.2423C27.2273 38.4511 32.1394 36.0213 35.0741 34.5645L35.7473 34.2332C36.7413 33.7336 37.8509 33.2234 39.008 32.7291L39.3551 32.5713C39.4238 32.6399 39.4976 32.7032 39.576 32.7606L39.6654 32.829L39.881 32.971L40.002 33.0393C40.1604 33.125 40.3257 33.1972 40.4963 33.255L40.6121 33.2918C40.8012 33.347 40.9948 33.3857 41.1906 33.4075H41.3115H41.5114H41.706H41.8322C42.0466 33.386 42.2581 33.342 42.4633 33.276L42.6 33.2287C42.8424 33.1439 43.0723 33.0272 43.2838 32.8816L43.4047 32.7922L43.6414 32.5976C43.7167 32.5328 43.787 32.4625 43.8517 32.3872C43.9213 32.3123 43.9862 32.2332 44.0463 32.1505C44.0791 32.1106 44.109 32.0685 44.1358 32.0243C44.3676 31.6848 44.5286 31.302 44.6091 30.8988C44.6221 30.8503 44.6326 30.8012 44.6406 30.7516C44.6406 30.6464 44.6407 30.5465 44.6722 30.4413C45.7819 30.0468 46.7391 29.6839 47.4386 29.4473Z" fill="white"/>
<path d="M47.4387 7.81592C47.4387 8.2051 47.4387 8.61532 47.4387 8.94666C47.3913 9.96169 47.3597 11.0504 47.3334 12.2127C47.2388 15.6364 47.1389 19.5125 46.3815 22.4261C45.9105 24.4315 44.8865 26.2645 43.4258 27.717L43.2996 27.6328L43.2155 27.5802H43.1787L43.0524 27.5066L42.8052 27.3909L42.5791 27.3067L42.4739 27.2699C42.3478 27.2338 42.2196 27.2057 42.09 27.1858C42.0569 27.1807 42.0232 27.1807 41.9901 27.1858H41.8954H41.7376H41.5746C40.7377 27.1858 39.935 27.5182 39.3432 28.11C38.7515 28.7018 38.419 29.5044 38.419 30.3413C38.4184 30.5568 38.4395 30.7717 38.4821 30.9829C37.2462 31.5089 36.0366 32.0611 34.9585 32.6081L34.2958 32.9341C31.5084 34.3173 27.0853 36.5052 24.7186 40.7073V29.8259C24.7186 29.4788 24.7186 29.0633 24.7186 28.611L24.908 28.5426L24.9711 28.5164L25.1709 28.4217C25.2393 28.3901 25.3077 28.3481 25.3708 28.3113C25.4441 28.2688 25.5144 28.2213 25.5812 28.1692L25.7548 28.0378L25.8283 27.9799C25.8712 27.9441 25.9116 27.9054 25.9493 27.8642L25.9809 27.8379L26.1229 27.6801C26.1755 27.6223 26.2228 27.5644 26.2701 27.5013C26.3199 27.4359 26.3656 27.3673 26.4069 27.2962C26.4328 27.2643 26.4541 27.2289 26.47 27.191L26.5331 27.0806C26.5527 27.0466 26.5703 27.0115 26.5857 26.9754L26.6435 26.8492C26.6598 26.8133 26.6739 26.7764 26.6856 26.7387C26.7462 26.5839 26.792 26.4236 26.8223 26.2601C26.8253 26.2181 26.8253 26.1759 26.8223 26.1339C26.8253 26.1095 26.8253 26.0847 26.8223 26.0603C26.8223 26.0603 26.8223 26.0603 26.8223 26.034C26.8223 26.0077 26.8223 25.9761 26.8223 25.9446C26.8251 25.8903 26.8251 25.8358 26.8223 25.7815C26.8223 25.7289 26.8223 25.6711 26.8223 25.6185C26.8223 25.5659 26.8223 25.5028 26.8223 25.445C26.8249 25.4082 26.8249 25.3713 26.8223 25.3345C26.8252 25.31 26.8252 25.2853 26.8223 25.2609C26.8253 25.2364 26.8253 25.2117 26.8223 25.1873V25.1609L26.7908 24.9821V24.9506C26.7908 24.8875 26.7593 24.8191 26.7382 24.7613L26.6751 24.5824C26.6534 24.5158 26.627 24.4508 26.5962 24.3878C26.5743 24.3298 26.5479 24.2735 26.5173 24.2195L26.4069 24.0197C26.3648 23.9566 26.3227 23.8882 26.2754 23.8251L26.1965 23.7199L26.1387 23.6515C26.1029 23.6053 26.0643 23.5614 26.023 23.5201C25.9784 23.4684 25.9309 23.4193 25.881 23.3728L25.7548 23.2571L25.7074 23.2203L25.5602 23.1046L25.4234 23.0152C25.3574 22.971 25.2889 22.9306 25.2183 22.8942C25.295 22.4979 25.4059 22.1091 25.5496 21.7319V21.6898C27.2221 16.9039 32.1342 14.4689 35.0689 13.0173L35.7421 12.686C39.5503 10.8529 43.4548 9.22721 47.4387 7.81592Z" fill="white"/>
<path d="M25.3338 25.5975C25.3324 26.028 25.1607 26.4406 24.8563 26.745C24.5518 27.0495 24.1393 27.2212 23.7087 27.2226C23.3661 27.2252 23.0319 27.1163 22.7567 26.9123C22.5482 26.7622 22.3784 26.5648 22.2612 26.3361C22.1441 26.1075 22.083 25.8543 22.083 25.5975C22.083 25.3406 22.1441 25.0874 22.2612 24.8588C22.3784 24.6302 22.5482 24.4327 22.7567 24.2826C22.9997 24.1094 23.2855 24.0061 23.5831 23.9841C23.8807 23.962 24.1786 24.0221 24.4444 24.1577C24.7102 24.2933 24.9337 24.4993 25.0905 24.7531C25.2473 25.007 25.3315 25.2991 25.3338 25.5975Z" fill="white"/>
<path d="M43.147 30.273C43.1477 30.5812 43.0581 30.8829 42.8893 31.1408C42.7439 31.3718 42.5421 31.5621 42.3028 31.6936C42.0636 31.8252 41.7949 31.8938 41.5219 31.8929C41.3873 31.893 41.2531 31.8771 41.1222 31.8455C40.7714 31.7565 40.4604 31.553 40.2384 31.2672C40.0165 30.9814 39.8962 30.6296 39.8968 30.2677C39.894 30.245 39.894 30.2221 39.8968 30.1994C39.9077 29.7771 40.0832 29.3758 40.3858 29.0811C40.6884 28.7863 41.0942 28.6215 41.5167 28.6216C41.7356 28.6208 41.9523 28.6656 42.153 28.7531C42.4516 28.8781 42.7058 29.0897 42.883 29.3606C43.0602 29.6315 43.1522 29.9493 43.147 30.273Z" fill="white"/>
<path d="M25.1339 47.8862C25.1331 48.2748 24.9889 48.6493 24.729 48.9381C24.5772 49.1128 24.3898 49.2529 24.1794 49.3491C23.9689 49.4453 23.7402 49.4952 23.5088 49.4956C23.2463 49.496 22.9878 49.431 22.7567 49.3063C22.4929 49.1705 22.2715 48.9647 22.117 48.7114C21.9624 48.4582 21.8807 48.1672 21.8807 47.8705C21.8807 47.5738 21.9624 47.2828 22.117 47.0295C22.2715 46.7762 22.4929 46.5704 22.7567 46.4347C22.9878 46.31 23.2463 46.2449 23.5088 46.2454C23.7766 46.2452 24.0402 46.3114 24.276 46.4381C24.5119 46.5647 24.7127 46.7479 24.8604 46.9711C25.0424 47.2413 25.1378 47.5605 25.1339 47.8862Z" fill="white"/>
<path d="M4.44938 41.512C4.31946 41.5699 4.19452 41.6385 4.07593 41.7171C4.19387 41.6375 4.31891 41.5688 4.44938 41.512Z" fill="white"/>
<path d="M7.39982 44.4099C7.39989 44.7244 7.30844 45.0321 7.1366 45.2954C6.96477 45.5588 6.71999 45.7664 6.43214 45.893C6.22613 45.9882 6.00165 46.0367 5.77473 46.035C5.45568 46.0342 5.14391 45.9396 4.8783 45.7628C4.6127 45.5861 4.40495 45.335 4.28105 45.041C4.19606 44.8416 4.1531 44.6267 4.15484 44.4099C4.15396 44.0487 4.27343 43.6975 4.49439 43.4118C4.71534 43.1261 5.02523 42.9221 5.37502 42.8321C5.50564 42.7985 5.63986 42.7808 5.77473 42.7795C6.14814 42.7833 6.50886 42.9156 6.79621 43.1541C7.08356 43.3926 7.28001 43.7228 7.35251 44.0891C7.37926 44.1941 7.3951 44.3016 7.39982 44.4099Z" fill="white"/>
<path d="M25.3338 72.731C25.3337 72.9884 25.2721 73.242 25.1541 73.4707C25.0361 73.6994 24.8651 73.8966 24.6554 74.0458C24.381 74.2469 24.0489 74.3539 23.7088 74.3508C23.3732 74.3502 23.0461 74.2456 22.7723 74.0516C22.4986 73.8576 22.2916 73.5836 22.1798 73.2672C22.068 72.9508 22.0568 72.6076 22.1479 72.2847C22.239 71.9617 22.4278 71.6749 22.6884 71.4635H22.7568V71.3951C22.9993 71.2199 23.2854 71.115 23.5837 71.092C23.882 71.069 24.1808 71.1287 24.4473 71.2647C24.7138 71.4007 24.9376 71.6075 25.094 71.8625C25.2504 72.1175 25.3334 72.4108 25.3338 72.71V72.731Z" fill="white"/>
<path d="M22.7569 71.4161V71.4845H22.6885L22.7569 71.4161Z" fill="white"/>
<path d="M105.323 54.4132C105.371 57.9012 104.805 61.3705 103.653 64.6632C102.63 67.5909 100.99 70.2645 98.8434 72.5032C96.6622 74.7184 94.0195 76.4256 91.1034 77.5032C87.764 78.7243 84.2285 79.3209 80.6734 79.2632C79.0534 79.2632 77.3534 79.1832 75.5934 79.0332C73.8334 78.8832 72.0834 78.6932 70.3734 78.4532C68.6634 78.2132 67.0234 77.9232 65.4734 77.5932C63.9234 77.2632 62.5334 76.9232 61.3334 76.5932V10.4232L74.7334 8.26318V31.8332C76.2395 31.1712 77.807 30.6587 79.4134 30.3032C81.1284 29.9329 82.8789 29.7518 84.6334 29.7632C87.6911 29.7023 90.7263 30.2991 93.5334 31.5132C96.059 32.6429 98.2801 34.3566 100.013 36.5132C101.845 38.8186 103.204 41.4623 104.013 44.2932C104.936 47.5857 105.377 50.9943 105.323 54.4132ZM91.6434 54.0532C91.6434 45.3865 88.4667 41.0532 82.1134 41.0532C80.729 41.0536 79.3506 41.2351 78.0134 41.5932C76.858 41.8745 75.752 42.3297 74.7334 42.9432V67.3632C75.3934 67.4832 76.2334 67.5932 77.2534 67.6832C78.2734 67.7732 79.3834 67.8132 80.5834 67.8132C84.2434 67.8132 87 66.5532 88.8534 64.0332C90.7067 61.5132 91.6367 58.1865 91.6434 54.0532Z" fill="white"/>
<path d="M135.363 29.5032C138.715 29.4158 142.058 29.8717 145.263 30.8532C147.662 31.6047 149.839 32.9337 151.603 34.7232C153.218 36.4512 154.376 38.5547 154.973 40.8432C155.664 43.4529 156.001 46.1438 155.973 48.8432V76.7232C154.053 77.1432 151.393 77.6332 147.973 78.2032C143.863 78.8251 139.71 79.1127 135.553 79.0632C132.759 79.0896 129.97 78.818 127.233 78.2532C124.937 77.7932 122.753 76.8897 120.803 75.5932C119.019 74.3879 117.59 72.7271 116.663 70.7832C115.63 68.4985 115.128 66.0097 115.193 63.5032C115.121 61.0633 115.697 58.6478 116.863 56.5032C117.932 54.6193 119.463 53.0394 121.313 51.9132C123.287 50.7308 125.448 49.8954 127.703 49.4432C130.156 48.9252 132.656 48.6671 135.163 48.6732C136.713 48.6651 138.262 48.7418 139.803 48.9032C140.91 49.0078 142.007 49.2018 143.083 49.4832V48.2032C143.13 47.1955 142.97 46.1889 142.614 45.2449C142.258 44.301 141.713 43.4395 141.013 42.7132C139.633 41.3332 137.233 40.6432 133.813 40.6432C131.557 40.643 129.305 40.8101 127.073 41.1432C125.12 41.4049 123.197 41.8605 121.333 42.5032L119.623 31.7132C120.403 31.4732 121.373 31.2132 122.543 30.9432C123.713 30.6732 124.993 30.4432 126.373 30.2232C127.753 30.0032 129.203 29.8432 130.733 29.6832C132.263 29.5232 133.803 29.5032 135.363 29.5032ZM136.443 68.7232C137.777 68.7232 139.037 68.6932 140.223 68.6332C141.188 68.5961 142.149 68.506 143.103 68.3632V58.1932C142.563 58.0732 141.753 57.9532 140.673 57.8332C139.677 57.7177 138.676 57.6576 137.673 57.6532C136.486 57.6471 135.3 57.7206 134.123 57.8732C133.106 57.9969 132.116 58.2874 131.193 58.7332C130.386 59.1144 129.695 59.7049 129.193 60.4432C128.69 61.2478 128.439 62.1848 128.473 63.1332C128.473 65.2332 129.177 66.6899 130.583 67.5032C132.398 68.409 134.418 68.826 136.443 68.7132V68.7232Z" fill="white"/>
<path d="M184.193 47.7432C185.527 46.3099 186.89 44.8199 188.283 43.2732C189.693 41.7232 191.053 40.1932 192.373 38.6632C193.693 37.1332 194.933 35.6632 196.103 34.3332C197.273 33.0032 198.273 31.7632 199.103 30.7532H215.043C211.863 34.3999 208.76 37.8865 205.733 41.2132C202.707 44.5398 199.4 47.9698 195.813 51.5032C197.798 53.3163 199.662 55.2571 201.393 57.3132C203.313 59.5665 205.173 61.8998 206.973 64.3132C208.773 66.7265 210.44 69.1298 211.973 71.5232C213.473 73.9232 214.733 76.1232 215.753 78.1032H200.283C199.283 76.5332 198.283 74.8132 197.013 72.9132C195.743 71.0132 194.483 69.1332 193.103 67.2332C191.723 65.3332 190.273 63.5232 188.743 61.7832C187.364 60.1653 185.841 58.6759 184.193 57.3332V78.0732H170.793V10.4232L184.193 8.26318V47.7432Z" fill="white"/>
<path d="M220.103 54.7732C220.029 51.0153 220.688 47.2789 222.043 43.7732C223.194 40.8368 224.921 38.1607 227.123 35.9032C229.181 33.8298 231.646 32.2056 234.363 31.1332C237.038 30.0601 239.892 29.5069 242.773 29.5032C249.493 29.5032 254.803 31.5565 258.703 35.6632C262.603 39.7698 264.55 45.8132 264.543 53.7932C264.543 54.5732 264.543 55.4232 264.453 56.3532C264.363 57.2832 264.333 58.1132 264.273 58.8332H233.873C233.992 60.145 234.401 61.4141 235.07 62.5486C235.739 63.6831 236.653 64.6547 237.743 65.3932C240.01 67.0132 243.067 67.8232 246.913 67.8232C249.342 67.8275 251.766 67.6032 254.153 67.1532C256.145 66.8191 258.093 66.2658 259.963 65.5032L261.753 76.3932C260.828 76.8309 259.868 77.1921 258.883 77.4732C257.568 77.8587 256.233 78.1725 254.883 78.4132C253.413 78.6832 251.883 78.9132 250.163 79.0932C248.503 79.2714 246.834 79.3616 245.163 79.3632C241.373 79.4453 237.603 78.8038 234.053 77.4732C231.081 76.3422 228.397 74.5662 226.193 72.2732C224.103 70.056 222.532 67.402 221.593 64.5032C220.577 61.361 220.074 58.0755 220.103 54.7732ZM251.593 49.6432C251.533 48.5132 251.335 47.3949 251.003 46.3132C250.688 45.2638 250.172 44.2857 249.483 43.4332C248.763 42.5731 247.875 41.8688 246.873 41.3632C245.647 40.7942 244.305 40.5202 242.953 40.5632C241.626 40.5261 240.307 40.7857 239.093 41.3232C238.062 41.7912 237.142 42.4729 236.393 43.3232C235.659 44.1871 235.092 45.1809 234.723 46.2532C234.338 47.3484 234.054 48.4764 233.873 49.6232L251.593 49.6432Z" fill="white"/>
<path d="M306.103 42.6232C304.903 42.3232 303.503 42.0132 301.883 41.6832C300.165 41.3419 298.416 41.1744 296.663 41.1832C295.66 41.1981 294.658 41.2749 293.663 41.4132C292.769 41.5101 291.883 41.6739 291.013 41.9032V78.0732H277.593V33.2732C280.381 32.3214 283.218 31.5235 286.093 30.8832C289.684 30.106 293.35 29.7304 297.023 29.7632C297.743 29.7632 298.613 29.7632 299.633 29.8932C300.653 30.0232 301.633 30.1132 302.693 30.2532C303.753 30.3932 304.693 30.5832 305.743 30.7932C306.635 30.9714 307.508 31.2291 308.353 31.5632L306.103 42.6232Z" fill="white"/>
<path d="M363.193 30.7532C360.487 39.8732 357.66 48.4198 354.713 56.3932C351.767 64.3665 348.533 72.1032 345.013 79.6032C343.915 81.9957 342.638 84.3022 341.193 86.5032C340.046 88.2575 338.648 89.8342 337.043 91.1832C335.543 92.4126 333.813 93.3305 331.953 93.8832C329.8 94.4869 327.57 94.7732 325.333 94.7332C323.381 94.7504 321.433 94.556 319.523 94.1532C318.044 93.8377 316.595 93.3926 315.193 92.8232L317.533 82.1232C318.733 82.5589 319.968 82.8934 321.223 83.1232C322.354 83.3072 323.498 83.3975 324.643 83.3932C325.652 83.4601 326.664 83.3218 327.618 82.9867C328.572 82.6515 329.448 82.1264 330.193 81.4432C331.643 79.9025 332.763 78.082 333.483 76.0932C330.423 70.0932 327.363 63.3598 324.303 55.8932C320.981 47.6719 318.097 39.2801 315.663 30.7532H329.873C330.473 33.0932 331.183 35.6265 332.003 38.3532C332.823 41.0798 333.68 43.8398 334.573 46.6332C335.473 49.4198 336.393 52.1332 337.333 54.7732C338.273 57.4132 339.16 59.8132 339.993 61.9732C340.787 59.8132 341.6 57.4132 342.433 54.7732C343.283 52.1332 344.103 49.4232 344.923 46.6332C345.743 43.8432 346.513 41.0832 347.263 38.3532C348.013 35.6232 348.693 33.0932 349.263 30.7532H363.193Z" fill="white"/>
<path d="M380.933 30.6117H398.261V37.4833H380.933V58.5908C380.893 60.5139 381.074 62.4352 381.471 64.3172C381.716 65.5964 382.258 66.8005 383.052 67.8332C383.737 68.6747 384.652 69.2993 385.686 69.6313C386.882 70.0052 388.132 70.1831 389.385 70.1581C391.396 70.2291 393.404 69.9461 395.318 69.3221C396.818 68.7723 397.86 68.3715 398.444 68.1768L400.025 74.9454C398.631 75.568 397.191 76.0811 395.718 76.48C393.428 77.1312 391.055 77.4437 388.675 77.4077C386.061 77.5054 383.451 77.1171 380.979 76.2624C379.057 75.5449 377.369 74.3127 376.1 72.7006C374.805 70.9751 373.92 68.9778 373.511 66.8597C372.978 64.2214 372.725 61.5342 372.756 58.8428V17.8533L380.933 16.4561V30.6117Z" fill="white"/>
<path d="M408.202 53.5631C408.126 49.9529 408.724 46.3602 409.965 42.9692C410.997 40.173 412.583 37.6138 414.627 35.4448C416.508 33.4877 418.789 31.9602 421.315 30.9667C423.773 29.9803 426.397 29.4711 429.046 29.4664C435.207 29.4664 439.93 31.3752 443.213 35.1928C446.496 39.0104 448.138 44.859 448.138 52.7385V54.193C448.138 54.7097 448.108 55.2261 448.046 55.7391H416.734C417.089 60.492 418.463 64.0882 420.868 66.562C423.274 69.0358 427.03 70.2498 432.127 70.2498C434.568 70.2943 437.006 70.0443 439.388 69.5053C440.908 69.1509 442.395 68.6643 443.831 68.0508L444.977 74.9225C443.3 75.6736 441.544 76.2345 439.743 76.5946C436.953 77.2121 434.102 77.508 431.245 77.4765C427.724 77.5535 424.222 76.9387 420.937 75.6669C418.199 74.5805 415.746 72.88 413.768 70.6964C411.855 68.5186 410.43 65.957 409.587 63.1834C408.638 60.066 408.171 56.8217 408.202 53.5631ZM439.605 49.085C439.809 45.7975 438.826 42.5461 436.834 39.9228C435.895 38.7521 434.693 37.8194 433.326 37.2006C431.959 36.5817 430.465 36.294 428.966 36.361C427.241 36.3391 425.536 36.7319 423.995 37.5063C422.596 38.204 421.353 39.178 420.342 40.3695C419.341 41.568 418.565 42.9376 418.051 44.4123C417.48 45.9132 417.095 47.4787 416.906 49.0736L439.605 49.085Z" fill="white"/>
<path d="M482.794 77.4078C479.467 77.4792 476.16 76.8793 473.07 75.644C470.389 74.5461 467.987 72.8637 466.038 70.7193C464.093 68.5497 462.636 65.9876 461.767 63.2063C460.795 60.0854 460.32 56.8314 460.358 53.5631C460.321 50.2766 460.844 47.0079 461.904 43.8969C462.847 41.0999 464.325 38.5131 466.256 36.2808C468.154 34.1312 470.499 32.423 473.128 31.276C476.002 30.0414 479.104 29.4249 482.233 29.4664C484.294 29.4712 486.351 29.6474 488.383 29.9933C490.403 30.3395 492.38 30.9 494.281 31.6654L492.506 38.6172C491.139 37.9893 489.706 37.5168 488.234 37.2085C486.544 36.8478 484.82 36.6712 483.092 36.6817C478.51 36.6817 475.017 38.1133 472.578 40.9879C470.139 43.8626 468.925 48.0543 468.925 53.586C468.905 55.8729 469.186 58.1524 469.761 60.366C470.259 62.2933 471.161 64.0929 472.406 65.6458C473.625 67.1523 475.2 68.3329 476.987 69.0816C479.179 69.9161 481.515 70.3055 483.859 70.2269C485.842 70.2466 487.821 70.0391 489.757 69.6084C491.177 69.3114 492.562 68.87 493.892 68.2913L495.037 75.163C494.405 75.5295 493.727 75.8106 493.021 75.9991C492.038 76.2886 491.04 76.5256 490.032 76.7091C488.887 76.9038 487.741 77.0871 486.47 77.236C485.249 77.3594 484.021 77.4168 482.794 77.4078Z" fill="white"/>
<path d="M506.799 76.354V9.5271L514.988 8.11841V31.5164C516.569 30.9142 518.202 30.458 519.866 30.1536C521.562 29.8362 523.284 29.6751 525.009 29.6725C528.101 29.5717 531.182 30.0936 534.068 31.2072C536.314 32.1292 538.285 33.6118 539.794 35.5135C541.286 37.4754 542.322 39.7443 542.829 42.1561C543.439 44.9586 543.735 47.8204 543.711 50.6884V76.3769H535.568V52.4292C535.6 50.0116 535.408 47.5963 534.996 45.214C534.724 43.4849 534.079 41.8357 533.106 40.3809C532.229 39.1524 531.005 38.2149 529.59 37.6895C527.833 37.09 525.983 36.8069 524.127 36.8534C523.215 36.8542 522.305 36.9154 521.401 37.0367C520.462 37.1512 519.569 37.2886 518.721 37.4261C517.874 37.5635 517.106 37.7353 516.431 37.9185C515.941 38.0348 515.46 38.1801 514.988 38.3537V76.354H506.799Z" fill="white"/>
</svg>
