<svg width="213" height="37" viewBox="0 0 213 37" fill="none" xmlns="http://www.w3.org/2000/svg">
<path d="M9.13926 11.6439V12.9557C8.2408 11.3584 6.56167 10.5278 5.50348 10.0047L5.2519 9.88095C4.80067 9.65333 4.29154 9.42373 3.77642 9.2041C2.11924 8.42543 1.28067 7.49701 0.901317 6.0375C0.613808 4.93139 0.575885 3.4599 0.539946 2.16012C0.539946 1.72087 0.517969 1.30558 0.5 0.920239C0.5 0.79645 0.5 0.638715 0.5 0.490967C2.01073 1.01725 3.49233 1.62375 4.93845 2.30787L5.19399 2.43565C6.30809 2.98671 8.17291 3.90914 8.80782 5.72803V5.744C9.09334 6.4508 9.14725 8.32161 9.14326 9.01842H9.1273L9.07139 9.03838L9.03744 9.05236L8.98352 9.07632L8.9436 9.09629C8.92945 9.10278 8.91607 9.11081 8.90368 9.12024L8.86773 9.14021C8.84951 9.1508 8.83215 9.16282 8.81582 9.17615L8.79785 9.18813L8.78386 9.19811C8.76903 9.20832 8.75501 9.21966 8.74194 9.23205L8.71999 9.25003C8.70241 9.26428 8.68574 9.27962 8.67007 9.29595C8.64811 9.31791 8.62416 9.33987 8.60419 9.36383L8.54428 9.4377L8.49037 9.51557C8.4744 9.53953 8.46043 9.56149 8.44645 9.58745C8.3833 9.7046 8.34012 9.83146 8.31867 9.96281V9.99875C8.31867 10.0307 8.31867 10.0646 8.31867 10.0986C8.31867 10.1325 8.31867 10.1405 8.31867 10.1605C8.31867 10.1804 8.31867 10.2024 8.31867 10.2224C8.31867 10.2423 8.31867 10.2903 8.31867 10.3222V10.3581C8.31867 10.3841 8.31866 10.412 8.33463 10.438C8.3506 10.464 8.34663 10.4879 8.35462 10.5139C8.3626 10.5398 8.36859 10.5538 8.37458 10.5738L8.4105 10.6616L8.44645 10.7315L8.48637 10.7974C8.49835 10.8174 8.51235 10.8373 8.52632 10.8573L8.57224 10.9172L8.61016 10.9611L8.65011 11.003L8.68404 11.035L8.69802 11.047L8.73595 11.0789L8.76191 11.1009L8.79586 11.1268C8.84185 11.1591 8.88986 11.1885 8.9396 11.2147C8.95025 11.2218 8.96164 11.2279 8.97356 11.2326L9.03344 11.2606C9.0443 11.2658 9.05568 11.2698 9.06739 11.2726L9.1233 11.2945H9.13926V11.626V11.6439Z" fill="#F28444"/>
<path d="M8.22082 18.6281C8.22001 18.8975 8.31001 19.1593 8.47629 19.3712C8.64257 19.5831 8.87542 19.7328 9.13725 19.7961V19.858V21.1798C8.23878 19.5825 6.55965 18.7519 5.50146 18.2288L5.24989 18.103C4.85057 17.9033 4.4233 17.7037 3.97806 17.504L3.88223 17.4601V17.4481C3.88223 17.4242 3.88223 17.4002 3.88223 17.3742C3.88223 17.3483 3.88223 17.3183 3.88223 17.2884C3.88223 16.9707 3.75602 16.666 3.53136 16.4413C3.3067 16.2167 3.00199 16.0904 2.68427 16.0904H2.6004H2.51854L2.45066 16.1024H2.42071L2.35483 16.1204L2.28695 16.1444L2.21507 16.1743C2.16575 16.1963 2.11832 16.2223 2.0733 16.2522C1.50613 15.6971 1.10864 14.9922 0.927257 14.2196C0.639748 13.1135 0.601825 11.642 0.565886 10.3422C0.565886 9.90299 0.543909 9.4877 0.52594 9.10236C0.52594 8.97857 0.52594 8.82284 0.52594 8.6731C1.17084 8.9027 2.37479 9.34395 3.52083 9.83312L3.72049 9.92297C4.15774 10.1226 4.58303 10.3063 4.96039 10.496L5.21594 10.6218C6.33004 11.1728 8.19487 12.0973 8.82979 13.9162V13.9321C9.09733 14.593 9.16121 16.2781 9.1652 17.0608V17.4322C8.89347 17.4909 8.65064 17.6424 8.47834 17.8606C8.30604 18.0788 8.215 18.3501 8.22082 18.6281Z" fill="#F28444"/>
<path d="M9.1393 27.5608V27.5867H9.11334L9.1393 27.5608Z" fill="#F28444"/>
<path d="M9.13921 25.3125V26.9098L9.08529 26.9278L9.04137 26.9457L8.99546 26.9657C8.98024 26.9718 8.96556 26.9792 8.95154 26.9877L8.90759 27.0096L8.88563 27.0236L8.86567 27.0356L8.80776 27.0735L8.72792 27.1354L8.69797 27.1614L8.66801 27.1893L8.64006 27.2193L8.6081 27.2512L8.57818 27.2872V27.2991L8.55022 27.3351L8.52426 27.373C7.2145 26.9398 5.06615 26.209 3.99598 25.7298C2.19904 24.9312 1.31058 23.9868 0.917247 22.4694C0.629738 21.3633 0.591791 19.8918 0.555852 18.592C0.555852 18.1528 0.5339 17.7375 0.51593 17.3521C0.51593 17.2263 0.51593 17.0706 0.51593 16.9229C0.773491 17.0147 1.11491 17.1405 1.51423 17.2882C1.51423 17.6059 1.64043 17.9106 1.86509 18.1353C2.08975 18.36 2.39447 18.4862 2.71218 18.4862H2.81998H2.85593H2.89386H2.95176L2.98971 18.4762L3.02963 18.4662L3.07156 18.4542C3.10949 18.4423 3.14744 18.4263 3.18537 18.4103L3.23929 18.3844C3.25854 18.3756 3.27719 18.3656 3.29517 18.3544L3.34509 18.3245C3.35398 18.3198 3.36207 18.3137 3.36905 18.3065L3.393 18.2905L3.41696 18.2745L3.47687 18.2226L3.52079 18.1847L3.56273 18.1428C4.04192 18.3424 4.50911 18.5581 4.9224 18.7657L5.17797 18.8935C6.29207 19.4445 8.15688 20.369 8.7918 22.1879V22.2038C9.07132 22.8447 9.13521 24.5299 9.13921 25.3125Z" fill="#F28444"/>
<path d="M18.5113 19.8521C18.5113 20.0018 18.5113 20.1575 18.5113 20.2813C18.4913 20.6667 18.4793 21.08 18.4693 21.5212C18.4354 22.821 18.3974 24.2925 18.1079 25.3986C17.7086 26.918 16.8221 27.8604 15.0292 28.659C13.7594 29.2301 10.9801 30.1485 9.87 30.5079V29.2061L9.94986 29.1781L9.97582 29.1662C9.9985 29.1579 10.0205 29.1478 10.0417 29.1362L10.0856 29.1143L10.1196 29.0943L10.1675 29.0623L10.2094 29.0344C10.23 29.0215 10.2494 29.0068 10.2673 28.9905C10.2775 28.9836 10.2869 28.9755 10.2953 28.9665C10.3116 28.9536 10.3269 28.9396 10.3412 28.9246C10.362 28.9061 10.3813 28.8861 10.3991 28.8647C10.4127 28.8522 10.4247 28.8381 10.435 28.8228C10.452 28.8048 10.4674 28.7855 10.4809 28.7648L10.5169 28.7089L10.5369 28.677C10.5369 28.665 10.5508 28.655 10.5548 28.6451C10.5668 28.6231 10.5768 28.6011 10.5868 28.5792L10.6008 28.5492C10.6008 28.5492 10.6008 28.5492 10.6008 28.5392C10.6076 28.5263 10.6136 28.513 10.6187 28.4993C10.6335 28.4587 10.6461 28.4174 10.6566 28.3755C10.6566 28.3635 10.6566 28.3516 10.6566 28.3376L10.6686 28.2777C10.6697 28.2677 10.6697 28.2577 10.6686 28.2477C10.6695 28.2364 10.6695 28.2251 10.6686 28.2138C10.6706 28.1905 10.6706 28.1672 10.6686 28.1439C10.6686 28.1219 10.6686 28.102 10.6686 28.082C10.6686 28.062 10.6686 28.0401 10.6686 28.0201C10.6696 28.0008 10.6696 27.9815 10.6686 27.9622C10.6686 27.9622 10.6686 27.9462 10.6686 27.9363C10.6698 27.921 10.6698 27.9056 10.6686 27.8903C10.6696 27.873 10.6696 27.8557 10.6686 27.8384C10.6686 27.8205 10.6686 27.8005 10.6546 27.7805C10.6407 27.7606 10.6327 27.7027 10.6187 27.6627C10.6112 27.6471 10.6046 27.6311 10.5988 27.6148C10.5868 27.5869 10.5748 27.5609 10.5608 27.5349L10.5189 27.4571C10.5189 27.4411 10.4989 27.4251 10.4869 27.4092L10.469 27.3832C10.4533 27.36 10.4359 27.338 10.4171 27.3173L10.3552 27.2514L10.3232 27.2195C10.3136 27.2085 10.3029 27.1984 10.2913 27.1895C10.2673 27.1696 10.2454 27.1496 10.2194 27.1316C10.2022 27.1174 10.1842 27.104 10.1655 27.0917L10.1355 27.0717L10.1016 27.0518L10.0677 27.0318L10.0337 27.0138L9.99978 26.9979L9.96783 26.9839L9.90195 26.9579C9.94787 26.2571 10.0357 25.5204 10.1914 25.135V25.1191C10.8264 23.3002 12.6912 22.3777 13.8053 21.8267L14.0608 21.6989C15.5101 21.0039 16.9957 20.3874 18.5113 19.8521Z" fill="#F28444"/>
<path d="M18.5093 11.6279C18.5093 11.7777 18.5093 11.9334 18.5093 12.0572C18.4913 12.4445 18.4793 12.8558 18.4693 13.2971C18.4334 14.5969 18.3955 16.0703 18.1079 17.1745C17.7086 18.6939 16.8201 19.6383 15.0292 20.4349C14.5839 20.6346 14.1487 20.8342 13.7574 21.0219L13.5058 21.1477C12.4476 21.6708 10.7685 22.5034 9.87 24.0987V19.9857C9.87 19.9118 9.87 19.8339 9.87 19.7461C10.0822 19.6645 10.2669 19.5243 10.4024 19.3417C10.5378 19.1591 10.6186 18.9417 10.6351 18.715C10.6516 18.4882 10.6033 18.2614 10.4958 18.0611C10.3882 17.8608 10.2259 17.6953 10.0277 17.5838C10.0607 17.344 10.1189 17.1084 10.2014 16.881V16.865C10.8364 15.0461 12.7012 14.1237 13.8153 13.5706L14.0708 13.4448C14.4482 13.2552 14.8695 13.0615 15.3087 12.8738L15.4405 12.8139C15.4666 12.84 15.4946 12.864 15.5243 12.8858L15.5583 12.9117L15.6402 12.9656L15.6861 12.9916C15.7462 13.0241 15.809 13.0515 15.8737 13.0735L15.9177 13.0874C15.9895 13.1084 16.063 13.1231 16.1373 13.1314H16.1832H16.2591H16.333H16.3809C16.4623 13.1232 16.5426 13.1065 16.6205 13.0814L16.6724 13.0635C16.7644 13.0313 16.8517 12.987 16.9319 12.9317L16.9779 12.8978L17.0677 12.8239C17.0963 12.7993 17.123 12.7726 17.1476 12.744C17.174 12.7156 17.1986 12.6856 17.2214 12.6542C17.2339 12.639 17.2452 12.623 17.2554 12.6063C17.3434 12.4774 17.4045 12.3321 17.4351 12.179C17.44 12.1606 17.444 12.1419 17.4471 12.1231C17.4471 12.0832 17.4471 12.0452 17.459 12.0053C17.8803 11.8555 18.2437 11.7178 18.5093 11.6279Z" fill="#F28444"/>
<path d="M18.5094 3.41602C18.5094 3.56376 18.5094 3.7195 18.5094 3.84528C18.4914 4.23062 18.4794 4.64392 18.4694 5.08516C18.4335 6.38495 18.3956 7.85644 18.1081 8.96255C17.9293 9.72384 17.5405 10.4197 16.986 10.9711L16.9381 10.9392L16.9061 10.9192H16.8922L16.8442 10.8913L16.7504 10.8473L16.6645 10.8154L16.6246 10.8014C16.5767 10.7877 16.5281 10.777 16.4788 10.7695C16.4663 10.7675 16.4535 10.7675 16.4409 10.7695H16.405H16.3451H16.2832C15.9655 10.7695 15.6608 10.8957 15.4361 11.1203C15.2114 11.345 15.0852 11.6497 15.0852 11.9674C15.085 12.0492 15.093 12.1308 15.1092 12.211C14.64 12.4107 14.1808 12.6203 13.7715 12.828L13.5199 12.9517C12.4617 13.4768 10.7826 14.3074 9.88409 15.9027V11.7718C9.88409 11.64 9.88409 11.4822 9.88409 11.3105L9.95597 11.2846L9.97995 11.2746L10.0558 11.2387C10.0818 11.2267 10.1077 11.2107 10.1317 11.1967C10.1595 11.1806 10.1862 11.1626 10.2115 11.1428L10.2774 11.0929L10.3054 11.071C10.3216 11.0573 10.337 11.0427 10.3513 11.027L10.3633 11.017L10.4172 10.9571C10.4372 10.9352 10.4551 10.9132 10.4731 10.8893C10.492 10.8644 10.5093 10.8384 10.525 10.8114C10.5349 10.7993 10.5429 10.7858 10.549 10.7715L10.5729 10.7295C10.5804 10.7166 10.587 10.7033 10.5929 10.6896L10.6149 10.6417C10.621 10.6281 10.6264 10.6141 10.6308 10.5998C10.6538 10.541 10.6712 10.4801 10.6827 10.4181C10.6839 10.4021 10.6839 10.3861 10.6827 10.3701C10.6838 10.3609 10.6838 10.3515 10.6827 10.3422C10.6827 10.3422 10.6827 10.3422 10.6827 10.3322C10.6827 10.3222 10.6827 10.3103 10.6827 10.2983C10.6838 10.2777 10.6838 10.257 10.6827 10.2364C10.6827 10.2164 10.6827 10.1944 10.6827 10.1745C10.6827 10.1545 10.6827 10.1306 10.6827 10.1086C10.6837 10.0946 10.6837 10.0806 10.6827 10.0667C10.6838 10.0574 10.6838 10.048 10.6827 10.0387C10.6838 10.0294 10.6838 10.02 10.6827 10.0108V10.0008L10.6708 9.93289V9.92091C10.6708 9.89696 10.6588 9.871 10.6508 9.84904L10.6268 9.78115C10.6186 9.75586 10.6086 9.73118 10.5969 9.70728C10.5886 9.68524 10.5785 9.66388 10.5669 9.64338L10.525 9.56752C10.509 9.54356 10.4931 9.5176 10.4751 9.49364L10.4451 9.45371L10.4232 9.42776C10.4096 9.4102 10.395 9.39353 10.3793 9.37784C10.3623 9.35824 10.3443 9.33958 10.3254 9.32194L10.2774 9.27801L10.2595 9.26403L10.2036 9.22011L10.1517 9.18617C10.1266 9.1694 10.1006 9.15407 10.0738 9.14025C10.1029 8.98981 10.145 8.84218 10.1996 8.699V8.68302C10.8345 6.86612 12.6993 5.9417 13.8134 5.39064L14.069 5.26486C15.5147 4.56897 16.997 3.95179 18.5094 3.41602Z" fill="#F28444"/>
<path d="M10.1176 10.1664C10.1171 10.3299 10.0519 10.4865 9.9363 10.6021C9.82072 10.7177 9.66411 10.7829 9.50064 10.7834C9.37059 10.7844 9.24373 10.743 9.13925 10.6656C9.06009 10.6086 8.99561 10.5337 8.95114 10.4469C8.90667 10.3601 8.88348 10.264 8.88348 10.1664C8.88348 10.0689 8.90667 9.97279 8.95114 9.886C8.99561 9.79921 9.06009 9.72425 9.13925 9.66729C9.23148 9.60151 9.34 9.5623 9.45297 9.55394C9.56594 9.54557 9.67904 9.56837 9.77995 9.61986C9.88086 9.67134 9.9657 9.74953 10.0252 9.84591C10.0848 9.94228 10.1167 10.0532 10.1176 10.1664Z" fill="#F28444"/>
<path d="M16.88 11.9414C16.8803 12.0584 16.8463 12.1729 16.7822 12.2708C16.727 12.3585 16.6504 12.4308 16.5596 12.4807C16.4687 12.5307 16.3667 12.5567 16.2631 12.5563C16.212 12.5564 16.161 12.5504 16.1113 12.5384C15.9782 12.5046 15.8601 12.4273 15.7758 12.3188C15.6916 12.2103 15.6459 12.0768 15.6461 11.9394C15.6451 11.9308 15.6451 11.9221 15.6461 11.9134C15.6503 11.7531 15.7169 11.6008 15.8318 11.4889C15.9467 11.377 16.1007 11.3144 16.2611 11.3145C16.3442 11.3142 16.4265 11.3312 16.5027 11.3644C16.616 11.4118 16.7125 11.4922 16.7798 11.595C16.8471 11.6979 16.882 11.8185 16.88 11.9414Z" fill="#F28444"/>
<path d="M10.0417 18.6281C10.0414 18.7756 9.98665 18.9177 9.88799 19.0274C9.83037 19.0937 9.75924 19.1469 9.67933 19.1834C9.59943 19.2199 9.51263 19.2389 9.42479 19.239C9.32512 19.2392 9.22697 19.2145 9.13926 19.1671C9.0391 19.1156 8.95506 19.0375 8.89639 18.9413C8.83772 18.8452 8.8067 18.7347 8.8067 18.6221C8.8067 18.5094 8.83772 18.399 8.89639 18.3028C8.95506 18.2067 9.0391 18.1285 9.13926 18.077C9.22697 18.0297 9.32512 18.005 9.42479 18.0051C9.52643 18.0051 9.62649 18.0302 9.71604 18.0783C9.80558 18.1264 9.8818 18.1959 9.9379 18.2807C10.007 18.3832 10.0432 18.5044 10.0417 18.6281Z" fill="#F28444"/>
<path d="M2.18902 16.2083C2.1397 16.2303 2.09226 16.2563 2.04724 16.2861C2.09202 16.2559 2.13948 16.2298 2.18902 16.2083Z" fill="#F28444"/>
<path d="M3.3092 17.3082C3.30922 17.4275 3.2745 17.5443 3.20927 17.6443C3.14403 17.7443 3.05111 17.8231 2.94183 17.8712C2.86362 17.9073 2.7784 17.9257 2.69226 17.9251C2.57113 17.9248 2.45278 17.8889 2.35194 17.8218C2.25111 17.7547 2.17224 17.6594 2.12521 17.5477C2.09294 17.472 2.07663 17.3905 2.07729 17.3082C2.07696 17.171 2.12231 17.0377 2.2062 16.9292C2.29008 16.8208 2.40772 16.7433 2.54051 16.7092C2.5901 16.6964 2.64105 16.6897 2.69226 16.6892C2.83402 16.6906 2.97096 16.7409 3.08005 16.8314C3.18913 16.9219 3.26371 17.0473 3.29123 17.1864C3.30139 17.2262 3.30741 17.267 3.3092 17.3082Z" fill="#F28444"/>
<path d="M10.1176 28.0598C10.1176 28.1576 10.0942 28.2538 10.0494 28.3407C10.0045 28.4275 9.93963 28.5023 9.86003 28.559C9.75585 28.6353 9.6298 28.676 9.50065 28.6748C9.37327 28.6745 9.24908 28.6349 9.14516 28.5612C9.04123 28.4875 8.96264 28.3835 8.9202 28.2634C8.87776 28.1433 8.87353 28.013 8.90811 27.8904C8.94268 27.7678 9.01436 27.6589 9.1133 27.5787H9.13926V27.5527C9.23131 27.4862 9.33994 27.4464 9.45318 27.4376C9.56641 27.4289 9.67987 27.4516 9.78103 27.5032C9.8822 27.5548 9.96715 27.6333 10.0265 27.7302C10.0859 27.827 10.1174 27.9383 10.1176 28.0519V28.0598Z" fill="#F28444"/>
<path d="M9.1393 27.5608V27.5867H9.11334L9.1393 27.5608Z" fill="#F28444"/>
<path d="M40.4845 21.1058C40.5024 22.43 40.2878 23.747 39.8505 24.9971C39.4621 26.1085 38.8393 27.1235 38.0245 27.9734C37.1964 28.8144 36.1932 29.4625 35.0861 29.8715C33.8184 30.3351 32.4762 30.5616 31.1265 30.5397C30.5115 30.5397 29.8662 30.5093 29.198 30.4524C28.5298 30.3954 27.8655 30.3233 27.2163 30.2322C26.5671 30.1411 25.9445 30.031 25.3561 29.9057C24.7677 29.7804 24.24 29.6514 23.7844 29.5261V4.4057L28.8715 3.58569V12.5337C29.4433 12.2823 30.0384 12.0878 30.6482 11.9528C31.2993 11.8123 31.9638 11.7435 32.6299 11.7478C33.7907 11.7247 34.943 11.9513 36.0086 12.4122C36.9675 12.8411 37.8106 13.4917 38.4687 14.3104C39.164 15.1856 39.68 16.1892 39.9872 17.2639C40.3373 18.5139 40.5049 19.8079 40.4845 21.1058ZM35.2911 20.9691C35.2911 17.679 34.0852 16.0339 31.6732 16.0339C31.1477 16.034 30.6244 16.103 30.1167 16.2389C29.6781 16.3457 29.2582 16.5185 28.8715 16.7514V26.0221C29.1221 26.0676 29.441 26.1094 29.8282 26.1435C30.2154 26.1777 30.6368 26.1929 31.0924 26.1929C32.4818 26.1929 33.5284 25.7146 34.232 24.7579C34.9355 23.8012 35.2886 22.5383 35.2911 20.9691Z" fill="white"/>
<path d="M51.8888 11.649C53.1611 11.6158 54.4303 11.7889 55.6472 12.1615C56.5577 12.4468 57.3842 12.9513 58.0541 13.6307C58.6671 14.2867 59.1068 15.0853 59.3334 15.9541C59.5958 16.9448 59.7235 17.9663 59.7131 18.9911V29.5753C58.9842 29.7348 57.9744 29.9208 56.676 30.1372C55.1157 30.3733 53.5389 30.4825 51.961 30.4637C50.9002 30.4737 49.8413 30.3706 48.8024 30.1562C47.9308 29.9816 47.1016 29.6385 46.3614 29.1464C45.684 28.6888 45.1413 28.0583 44.7897 27.3203C44.3976 26.453 44.2068 25.5081 44.2316 24.5566C44.2042 23.6303 44.4229 22.7133 44.8656 21.8991C45.2712 21.184 45.8527 20.5842 46.555 20.1566C47.3041 19.7077 48.1246 19.3906 48.9808 19.2189C49.912 19.0223 50.8612 18.9243 51.8129 18.9266C52.4012 18.9235 52.9893 18.9527 53.5744 19.0139C53.9947 19.0536 54.4111 19.1273 54.8196 19.2341V18.7482C54.8372 18.3656 54.7765 17.9835 54.6414 17.6251C54.5063 17.2668 54.2995 16.9397 54.0338 16.664C53.5099 16.1401 52.5987 15.8781 51.3004 15.8781C50.444 15.8781 49.5887 15.9415 48.7417 16.068C48 16.1673 47.27 16.3403 46.5626 16.5843L45.9134 12.488C46.2095 12.3969 46.5777 12.2982 47.0219 12.1957C47.4661 12.0932 47.952 12.0059 48.4759 11.9224C48.9998 11.8388 49.5503 11.7781 50.1311 11.7174C50.712 11.6566 51.2966 11.649 51.8888 11.649ZM52.2988 26.5383C52.805 26.5383 53.2833 26.5269 53.7338 26.5041C54.0999 26.49 54.4649 26.4558 54.8272 26.4016V22.5407C54.6222 22.4952 54.3147 22.4496 53.9047 22.4041C53.5266 22.3602 53.1464 22.3374 52.7658 22.3357C52.3152 22.3334 51.8649 22.3613 51.4181 22.4192C51.0319 22.4662 50.6561 22.5765 50.3057 22.7457C49.9992 22.8904 49.7371 23.1146 49.5465 23.3949C49.3554 23.7004 49.2602 24.056 49.2731 24.4161C49.2731 25.2133 49.5402 25.7663 50.0742 26.0751C50.7632 26.419 51.53 26.5773 52.2988 26.5345V26.5383Z" fill="white"/>
<path d="M70.4263 18.5736C70.9325 18.0295 71.4501 17.4638 71.979 16.8767C72.5143 16.2882 73.0306 15.7074 73.5317 15.1266C74.0328 14.5457 74.5036 13.9877 74.9478 13.4828C75.3919 12.9778 75.7716 12.5071 76.0867 12.1237H82.138C80.9308 13.5081 79.7527 14.8317 78.6036 16.0946C77.4546 17.3575 76.1993 18.6597 74.8377 20.0011C75.5911 20.6894 76.2987 21.4262 76.956 22.2067C77.6849 23.0622 78.391 23.948 79.0744 24.8642C79.7577 25.7804 80.3905 26.6927 80.9726 27.6013C81.542 28.5125 82.0203 29.3477 82.4076 30.0993H76.5346C76.155 29.5033 75.7754 28.8503 75.2932 28.129C74.8111 27.4077 74.3328 26.694 73.8089 25.9727C73.285 25.2514 72.7345 24.5643 72.1537 23.9037C71.6301 23.2895 71.052 22.7241 70.4263 22.2143V30.0879H65.3392V4.4057L70.4263 3.58569V18.5736Z" fill="white"/>
<path d="M84.059 21.2425C84.0308 19.8159 84.2809 18.3975 84.7955 17.0665C85.2322 15.9518 85.888 14.9359 86.724 14.0788C87.5052 13.2917 88.441 12.6751 89.4726 12.268C90.4878 11.8606 91.5714 11.6506 92.6653 11.6492C95.2164 11.6492 97.2323 12.4287 98.7128 13.9877C100.193 15.5467 100.932 17.841 100.93 20.8705C100.93 21.1666 100.93 21.4893 100.896 21.8423C100.862 22.1954 100.85 22.5105 100.827 22.7838H89.2865C89.3316 23.2819 89.4868 23.7636 89.7409 24.1943C89.995 24.625 90.3416 24.9939 90.7557 25.2742C91.6162 25.8892 92.7766 26.1967 94.237 26.1967C95.1591 26.1984 96.0793 26.1132 96.9855 25.9424C97.7416 25.8156 98.4813 25.6055 99.1912 25.316L99.8707 29.4502C99.5193 29.6164 99.1549 29.7535 98.7812 29.8602C98.2818 30.0066 97.7749 30.1257 97.2626 30.2171C96.7046 30.3196 96.1237 30.4069 95.4708 30.4752C94.8403 30.5429 94.2067 30.5771 93.5726 30.5777C92.1339 30.6089 90.7024 30.3654 89.3549 29.8602C88.2265 29.4308 87.2074 28.7566 86.3709 27.8861C85.5774 27.0444 84.981 26.0369 84.6246 24.9364C84.2388 23.7435 84.0478 22.4962 84.059 21.2425ZM96.0136 19.295C95.9909 18.866 95.9157 18.4415 95.7897 18.0308C95.6699 17.6324 95.474 17.2611 95.2126 16.9375C94.9391 16.611 94.602 16.3436 94.2218 16.1516C93.7562 15.9356 93.2466 15.8316 92.7336 15.8479C92.2298 15.8338 91.7291 15.9324 91.2682 16.1364C90.8766 16.3141 90.5273 16.5729 90.2432 16.8957C89.9643 17.2237 89.7493 17.601 89.6092 18.008C89.4631 18.4238 89.355 18.852 89.2865 19.2874L96.0136 19.295Z" fill="white"/>
<path d="M116.708 16.6299C116.252 16.516 115.721 16.3983 115.106 16.2731C114.453 16.1435 113.789 16.0799 113.124 16.0832C112.743 16.0889 112.362 16.1181 111.985 16.1706C111.645 16.2073 111.309 16.2695 110.979 16.3566V30.0879H105.884V13.0803C106.942 12.719 108.02 12.4161 109.111 12.173C110.474 11.878 111.866 11.7354 113.261 11.7478C113.534 11.7478 113.864 11.7478 114.251 11.7972C114.639 11.8465 115.011 11.8807 115.413 11.9338C115.816 11.987 116.172 12.0591 116.571 12.1388C116.909 12.2065 117.241 12.3043 117.562 12.4312L116.708 16.6299Z" fill="white"/>
<path d="M138.381 12.1238C137.353 15.586 136.28 18.8306 135.161 21.8576C134.043 24.8845 132.815 27.8216 131.479 30.6689C131.062 31.5772 130.577 32.4528 130.029 33.2884C129.593 33.9544 129.062 34.553 128.453 35.0651C127.884 35.5318 127.227 35.8802 126.521 36.0901C125.703 36.3193 124.857 36.428 124.008 36.4128C123.267 36.4193 122.527 36.3455 121.802 36.1926C121.24 36.0728 120.69 35.9039 120.158 35.6877L121.047 31.6256C121.502 31.791 121.971 31.918 122.448 32.0052C122.877 32.0751 123.311 32.1094 123.746 32.1077C124.129 32.1331 124.513 32.0806 124.875 31.9534C125.237 31.8261 125.57 31.6268 125.853 31.3674C126.403 30.7825 126.828 30.0914 127.102 29.3364C125.94 27.0586 124.778 24.5024 123.617 21.6678C122.355 18.5467 121.261 15.3609 120.337 12.1238H125.731C125.959 13.0121 126.229 13.9739 126.54 15.009C126.851 16.0441 127.176 17.0919 127.516 18.1524C127.857 19.2103 128.207 20.2404 128.563 21.2426C128.92 22.2448 129.257 23.1559 129.573 23.976C129.874 23.1559 130.183 22.2448 130.5 21.2426C130.822 20.2404 131.134 19.2115 131.445 18.1524C131.756 17.0932 132.048 16.0454 132.333 15.009C132.618 13.9726 132.876 13.0121 133.092 12.1238H138.381Z" fill="white"/>
<path d="M145.115 12.07H151.694V14.6787H145.115V22.6918C145.1 23.4219 145.169 24.1513 145.32 24.8658C145.413 25.3514 145.618 25.8085 145.92 26.2006C146.18 26.52 146.527 26.7571 146.92 26.8832C147.374 27.0251 147.848 27.0927 148.324 27.0832C149.087 27.1101 149.85 27.0027 150.576 26.7658C151.146 26.5571 151.541 26.4049 151.763 26.331L152.363 28.9006C151.834 29.137 151.288 29.3318 150.728 29.4832C149.859 29.7304 148.958 29.849 148.054 29.8354C147.062 29.8725 146.071 29.725 145.133 29.4006C144.403 29.1282 143.762 28.6604 143.28 28.0484C142.789 27.3933 142.453 26.6351 142.298 25.831C142.095 24.8294 141.999 23.8093 142.011 22.7875V7.22648L145.115 6.69604V12.07Z" fill="#F28444"/>
<path d="M155.467 20.7832C155.439 19.4126 155.666 18.0487 156.137 16.7614C156.529 15.6998 157.131 14.7283 157.907 13.9048C158.621 13.1619 159.487 12.582 160.446 12.2048C161.379 11.8303 162.375 11.637 163.381 11.6353C165.72 11.6353 167.512 12.3599 168.759 13.8092C170.005 15.2585 170.628 17.4788 170.628 20.4701V21.0223C170.629 21.2185 170.617 21.4145 170.594 21.6093H158.707C158.841 23.4136 159.363 24.7788 160.276 25.718C161.189 26.6571 162.615 27.118 164.55 27.118C165.477 27.1349 166.403 27.04 167.307 26.8354C167.884 26.7008 168.448 26.5161 168.994 26.2832L169.428 28.8919C168.792 29.1771 168.125 29.39 167.441 29.5267C166.382 29.7612 165.3 29.8735 164.215 29.8615C162.879 29.8907 161.549 29.6573 160.302 29.1745C159.263 28.7621 158.331 28.1165 157.581 27.2876C156.854 26.4608 156.313 25.4883 155.994 24.4354C155.633 23.2519 155.456 22.0203 155.467 20.7832ZM167.389 19.0831C167.467 17.8351 167.093 16.6007 166.337 15.6049C165.981 15.1604 165.524 14.8063 165.005 14.5714C164.486 14.3364 163.919 14.2272 163.35 14.2527C162.695 14.2443 162.048 14.3935 161.463 14.6875C160.932 14.9523 160.46 15.3221 160.076 15.7744C159.696 16.2294 159.402 16.7494 159.207 17.3092C158.99 17.879 158.844 18.4733 158.772 19.0788L167.389 19.0831Z" fill="#F28444"/>
<path d="M183.785 29.8354C182.522 29.8625 181.267 29.6348 180.094 29.1658C179.076 28.749 178.164 28.1103 177.424 27.2963C176.686 26.4726 176.133 25.4999 175.802 24.4441C175.434 23.2593 175.253 22.0239 175.268 20.7832C175.254 19.5355 175.452 18.2946 175.855 17.1136C176.212 16.0517 176.774 15.0697 177.507 14.2222C178.227 13.4062 179.118 12.7577 180.115 12.3222C181.207 11.8535 182.384 11.6195 183.572 11.6353C184.354 11.6371 185.135 11.704 185.907 11.8353C186.674 11.9667 187.424 12.1795 188.146 12.4701L187.472 15.1092C186.953 14.8708 186.409 14.6914 185.85 14.5744C185.209 14.4375 184.554 14.3704 183.898 14.3744C182.159 14.3744 180.833 14.9179 179.907 16.0092C178.981 17.1005 178.52 18.6918 178.52 20.7919C178.512 21.66 178.619 22.5254 178.837 23.3658C179.026 24.0975 179.369 24.7807 179.842 25.3702C180.304 25.9421 180.902 26.3903 181.581 26.6745C182.413 26.9913 183.3 27.1391 184.189 27.1093C184.942 27.1168 185.694 27.038 186.429 26.8745C186.967 26.7618 187.493 26.5942 187.998 26.3745L188.433 28.9832C188.193 29.1224 187.936 29.2291 187.668 29.3006C187.294 29.4105 186.916 29.5005 186.533 29.5702C186.098 29.6441 185.663 29.7137 185.181 29.7702C184.717 29.8171 184.251 29.8388 183.785 29.8354Z" fill="#F28444"/>
<path d="M192.898 29.4353V4.06555L196.007 3.53076V12.4134C196.607 12.1848 197.227 12.0116 197.859 11.8961C198.503 11.7756 199.156 11.7144 199.811 11.7134C200.985 11.6752 202.155 11.8733 203.251 12.2961C204.103 12.6461 204.852 13.2089 205.424 13.9309C205.991 14.6757 206.384 15.537 206.577 16.4526C206.808 17.5166 206.92 18.603 206.911 19.6918V29.444H203.82V20.3526C203.832 19.4349 203.759 18.5179 203.603 17.6135C203.5 16.9571 203.255 16.331 202.885 15.7787C202.553 15.3123 202.088 14.9564 201.55 14.7569C200.883 14.5294 200.181 14.4219 199.477 14.4395C199.13 14.4398 198.785 14.4631 198.442 14.5091C198.085 14.5526 197.746 14.6048 197.424 14.6569C197.103 14.7091 196.811 14.7743 196.555 14.8439C196.369 14.8881 196.186 14.9432 196.007 15.0091V29.4353H192.898Z" fill="#F28444"/>
</svg>
